<?xml version="1.0" standalone="no"?>
<!DOCTYPE svg PUBLIC "-//W3C//DTD SVG 1.1//EN" "http://www.w3.org/Graphics/SVG/1.1/DTD/svg11.dtd" >
<!--
2013-9-30: Created.
-->
<svg>
<metadata>
Created by iconfont
</metadata>
<defs>

<font id="iconfont" horiz-adv-x="1024" >
  <font-face
    font-family="iconfont"
    font-weight="500"
    font-stretch="normal"
    units-per-em="1024"
    ascent="896"
    descent="-128"
  />
    <missing-glyph />
    
    <glyph glyph-name="xiangmu" unicode="&#58932;" d="M849.170732 896c97.404878 0 174.829268-77.42439 174.829268-174.829268v-674.341464c0-97.404878-77.42439-174.829268-174.829268-174.829268H174.829268c-97.404878 0-174.829268 77.42439-174.829268 174.829268V721.170732c0 97.404878 77.42439 174.829268 174.829268 174.829268h674.341464z m-109.892683-596.917073L499.512195 144.234146l-239.765854 154.848781c-9.990244 4.995122-22.478049 4.995122-29.970731-4.995122l-2.497561-2.497561c-7.492683-9.990244-2.497561-24.97561 7.492683-29.970732l252.253658-162.341463c2.497561 0 2.497561-2.497561 4.995122-2.497561h9.990244c2.497561 0 4.995122 2.497561 4.995122 2.497561l252.253659 162.341463c9.990244 7.492683 12.487805 19.980488 7.492683 29.970732-2.497561 12.487805-17.482927 14.985366-27.473171 7.492683z m0 89.912195L499.512195 234.146341l-239.765854 154.848781c-9.990244 4.995122-22.478049 4.995122-29.970731-4.995122l-2.497561-2.497561c-7.492683-9.990244-2.497561-24.97561 7.492683-29.970732l252.253658-162.341463c2.497561 0 2.497561-2.497561 4.995122-2.497561h9.990244c2.497561 0 4.995122 2.497561 4.995122 2.497561l252.253659 162.341463c9.990244 7.492683 12.487805 19.980488 7.492683 29.970732-2.497561 12.487805-17.482927 14.985366-27.473171 7.492683zM499.512195 646.243902h-4.995122c-2.497561 0-4.995122-2.497561-4.995122-2.497561L234.770732 481.404878c-7.492683-4.995122-9.990244-12.487805-9.990244-19.980488 0-7.492683 2.497561-14.985366 9.990244-19.980488l252.253658-162.341463c2.497561 0 2.497561-2.497561 4.995122-2.497561h9.990244c2.497561 0 4.995122 2.497561 4.995122 2.497561l252.253659 162.341463c4.995122 2.497561 9.990244 9.990244 9.990243 14.985366v2.497561c0 7.492683-2.497561 14.985366-9.990243 19.980488l-252.253659 162.341463c-2.497561 0-2.497561 2.497561-4.995122 2.497561 0 2.497561 0 2.497561-2.497561 2.497561z"  horiz-adv-x="1024" />

    
    <glyph glyph-name="shiyan" unicode="&#58934;" d="M716.8 281.6256l-0.1024-7.424c-3.84-149.6064-124.416-270.208-273.9968-274.1248L435.2 0l-7.3728 0.0768c-149.632 3.84-270.208 124.416-274.1248 274.048L153.6 281.6h111.0272a89.6 89.6 0 0 1 161.9456 0H716.8zM486.4 204.8a76.8 76.8 0 1 1 0-153.6 76.8 76.8 0 0 1 0 153.6zM384 793.6v-51.2h-0.0256L384 561.0752l-35.456-11.4432A281.8048 281.8048 0 0 1 158.2592 332.8h98.6624a89.6 89.6 0 0 0 177.3568 0h277.8624a281.856 281.856 0 0 1-183.1168 214.4l-7.168 2.432-35.4304 11.4432L486.4 691.2h-25.6a25.6 25.6 0 0 0 0 51.2h25.6V793.6h-102.4z m153.6-195.2512c116.48-37.632 204.8256-137.6768 225.6896-260.7104l0.896-5.76 0.0768-0.512 1.2032-8.6784 0.5376-4.48c0.3328-2.9696 0.6144-5.9392 0.8704-8.96l0.1792-2.432c0.256-3.6096 0.512-7.2192 0.64-10.8544l0.1024-2.8672c0.128-3.7888 0.2048-7.6032 0.2048-11.4432V281.6a332.544 332.544 0 0 0-155.392-281.6256L819.2 0V691.2H537.6v-92.8512z m1.0752-578.7392l2.9952 1.2288-1.1008-0.4608 3.2512 1.3312 0.8448 0.3584 2.9184 1.2544 1.2544 0.5632 1.4848 0.64 1.8688 0.8704-1.6896-0.768a280.3712 280.3712 0 0 1 26.0608 13.3632l2.6624 1.5872 0.128 0.0768 1.4336 0.8704 0.3584 0.1792 0.9472 0.6144 1.0752 0.6656 1.8432 1.152 0.768 0.4864 1.3824 0.8448 2.5344 1.664-1.8176-1.152 5.1968 3.4048c1.8944 1.28 3.7888 2.5856 5.632 3.9424l0.0256 0.0256 7.424 5.4528a283.008 283.008 0 0 1 16.7936 13.9008l-2.432-2.0992 2.7136 2.3552 1.8688 1.7408-1.792-1.6384 2.048 1.792 1.1776 1.1008-0.5632-0.512a283.3664 283.3664 0 0 1 11.2896 11.008l-0.2304-0.2048 1.2288 1.28 1.6384 1.6896 2.6112 2.7648-0.5376-0.512 0.6656 0.7168 0.384 0.4096 0.6144 0.6912 1.024 1.1264 0.7424 0.8192 0.128 0.1024 0.4608 0.5632 1.3056 1.4848 1.8688 2.1504 0.256 0.256c4.4288 5.2224 8.704 10.5728 12.7488 16.0768l1.2544 1.7152 0.3328 0.512-1.0752-1.4592 3.8144 5.2992 4.1728 6.144 1.7664 2.7648 0.1536 0.256 0.5632 0.896 0.128 0.1792 0.0512 0.0768 0.6656 1.024 0.128 0.256 0.0768 0.0768a280.6528 280.6528 0 0 1 27.136 56.7552l0.0256 0.0768 0.3584 1.0496 0.1792 0.512 0.5632 1.6128v0.0512l1.0752 3.3024a280.6784 280.6784 0 0 1 10.8544 48.64l0.0768 0.5632 0.7936 6.8096a282.7776 282.7776 0 0 1 1.4336 22.2208l0.1024 7.424H426.5984a89.6 89.6 0 0 0-161.9968 0H153.6a283.648 283.648 0 0 1 10.4704-76.3392c2.7648-9.856 6.0672-19.5072 9.856-28.9024l2.0992-5.0688 2.176-5.0176 3.072-6.6048 3.2256-6.5024 0.1536-0.256 0.9984-1.92-0.4608 0.896 0.512-0.9984 0.6656-1.28 0.0256-0.0256 0.8448-1.6128 0.256-0.4608 0.384-0.6656 0.384-0.7424 0.2816-0.512 0.1536-0.256 0.2048-0.384 0.3072-0.512 0.2304-0.4352 3.3024-5.7344a281.6 281.6 0 0 1 3.6864-6.0416l0.6144-0.9984 0.0512-0.0768 0.4096-0.64 0.3072-0.4608 0.128-0.2304 0.4352-0.64 0.768-1.2032 0.5888-0.9216 1.3824-2.048 0.3328-0.512 0.256-0.4096 0.3072-0.4352 0.128-0.1792 0.9472-1.3568 0.6144-0.9216 0.2048-0.2816 0.6144-0.8704 0.4864-0.6912 0.2048-0.3072 0.4608-0.64 0.0768-0.1024 0.3072-0.4352 0.5632-0.7936 1.0752-1.4848-0.6912 0.9728 3.2512-4.4032c1.3824-1.8432 2.816-3.6864 4.224-5.4784l0.256-0.3072 1.1264-1.3824 0.1024-0.128 0.1536-0.2304-1.6384 2.048c2.9952-3.7632 6.0672-7.424 9.216-11.008l0.6912-0.7936 0.1536-0.1792 0.3328-0.3584 0.1024-0.128 0.7424-0.8192 2.048-2.2528 0.0256-0.0512 0.6144-0.64 1.1008-1.2032 0.4096-0.4352 1.6128-1.6896-0.9728 1.024 1.2544-1.3312 0.3072-0.3072 1.024-1.0496 4.1472-4.1984 5.3248-5.12 0.0512-0.0768 1.7408-1.6128-0.5376 0.512 0.9728-0.896 2.2272-2.048 0.0768-0.0512 0.3328-0.2816 2.5856-2.304 3.0464-2.6112 1.4848-1.2544 0.3328-0.2816 0.768-0.64 1.28-1.0496 0.2816-0.2304 0.9216-0.7424 0.1792-0.1536 5.4272-4.2752 5.5552-4.1472c3.6352-2.6624 7.3728-5.248 11.1616-7.7568l0.2048-0.128 2.3552-1.536 0.1536-0.1024 0.2816-0.1792 1.8432-1.1776 1.4592-0.896-0.2304 0.128 2.688-1.6384 0.3328-0.2048 1.4592-0.896 0.128-0.0512 1.3824-0.8192 0.4352-0.256 0.4864-0.2816 0.3584-0.2048 0.0256-0.0512 3.328-1.8688-1.5104 0.8448 1.4848-0.8448 2.7136-1.5104 1.1264-0.6144 2.7392-1.4592-1.8944 0.9984 1.8432-0.9984 2.4064-1.2288-0.9216 0.4864 5.376-2.7392c2.1248-1.0496 4.2752-2.0992 6.4512-3.0976l0.2304-0.1024 6.2976-2.816c2.176-0.9472 4.352-1.8688 6.5792-2.7648l3.2-1.2544 2.3296-0.8704-3.8912 1.4848 3.84-1.4848 2.9184-1.0752 1.0752-0.4096 3.5072-1.2544 2.2528-0.7424 0.768-0.256 0.256-0.1024-0.256 0.1024 0.3584-0.128 3.0976-1.024c22.528-7.168 46.336-11.5968 70.912-12.8512l7.3472-0.3072L435.2 0c6.272 0 12.4928 0.2048 18.688 0.6144l9.216 0.768 7.6288 0.8448 7.5776 1.0496a279.808 279.808 0 0 1 40.8064 9.4464l1.664 0.5376 3.2 1.024 1.1008 0.384 0.2048 0.0768h0.0256l1.8944 0.6656 4.6848 1.6384c2.2784 0.8192 4.5312 1.6896 6.784 2.56zM486.4 204.8a76.8 76.8 0 1 0 0-153.6 76.8 76.8 0 0 0 0 153.6z m0-51.2a25.6 25.6 0 1 1 0-51.2 25.6 25.6 0 0 1 0 51.2z m-140.8 204.8a38.656 38.656 0 0 1-6.3232-0.512l-1.1776-0.2304a38.1696 38.1696 0 0 1-16.0512-7.3216l-1.1008-0.896-1.664-1.4848-0.8448-0.7936a38.656 38.656 0 0 1-7.3984-10.3936l-0.64-1.3824a38.144 38.144 0 0 1-0.8448-2.1248l-0.1536-0.4352a38.4 38.4 0 1 1 73.6256-4.096l-1.2288 4.096-0.1536 0.4352-0.4096 1.0496-0.2048 0.512 0.5888-1.5616-0.8192 2.1248-0.64 1.3824a38.2464 38.2464 0 0 1-5.888 8.7552l-0.7424 0.8192-1.6128 1.6128-1.664 1.4848a38.656 38.656 0 0 1-18.3296 8.448A38.7072 38.7072 0 0 1 345.6 358.4zM537.6 742.4h281.6V819.2a25.6 25.6 0 0 0 51.2 0v-76.8h25.6a25.6 25.6 0 0 0 0-51.2h-25.6v-691.2h64a38.4 38.4 0 0 0 0-76.8h-844.8a38.4 38.4 0 0 0 0 76.8h168.192A332.544 332.544 0 0 0 102.4 281.6v0.0768l0.1792 11.4176 0.128 2.8672c0.1536 3.6352 0.3584 7.2448 0.64 10.8544l0.1792 2.4576a330.2912 330.2912 0 0 0 1.2032 11.8272c15.4368 130.56 106.4448 237.952 228.096 277.248L332.8 793.6h-25.6a25.6 25.6 0 0 0 0 51.2h256a25.6 25.6 0 0 0 0-51.2h-25.6v-51.2z"  horiz-adv-x="1024" />

    
    <glyph glyph-name="shiyan1" unicode="&#58899;" d="M279.9 86.4c-45.5 0-82 36.1-82 80.5V747.4c0 12.8 10.4 23.2 23.2 23.2h118.1c12.8 0 23.2-10.4 23.2-23.2v-581c-0.5-44-37.1-80-82.5-80zM338.7 747.4v-581c0-31.6-26.7-57.3-59.3-57.3s-59.3 25.7-59.3 57.3v581h118.6m0 46.4H220.6c-25.7 0-46.4-20.7-46.4-46.4v-581c0-57.3 47.4-103.7 105.2-103.7s105.2 46.4 105.2 103.7v581c0.5 25.7-20.3 46.4-45.9 46.4zM279.9 86.4c-45.5 0-82 36.1-82 80.5V444c0 12.8 10.4 23.2 23.2 23.2h118.1c12.8 0 23.2-10.4 23.2-23.2v-277.6c-0.5-44-37.1-80-82.5-80zM338.7 444v-277.6c0-31.6-26.7-57.3-59.3-57.3s-59.3 25.7-59.3 57.3V444h118.6m0 46.5H220.6c-25.7 0-46.4-20.7-46.4-46.4v-277.6c0-57.3 47.4-103.7 105.2-103.7 58.3 0 105.2 46.4 105.2 103.7V444c0.5 25.7-20.3 46.5-45.9 46.5zM528.4-16.4c-27.7 0-53.8 12.8-73.1 36.1-24.7 29.1-35.1 71.1-27.7 111.7l104.2 591.3c5.4 30.1 28.7 51.9 55.3 51.9h166c26.7 0 50.4-21.7 55.3-51.9l104.7-591.8c6.9-40.5-3.5-82-27.7-111.6-19.3-23.2-45.5-36.1-73.1-36.1H528.4v0.4zM753.1 751.3c15.8 0 29.1-13.3 32.6-32.6l104.7-591.8c10.9-61.8-27.2-120-78.1-120H528.4c-50.9 0-88.9 58.3-78.1 120L555 718.7c3.5 19.3 16.8 32.6 32.6 32.6h165.5m0 46.5h-166c-38 0-71.1-29.6-78.6-70.6L404.4 135.3c-8.4-46.9 4-95.8 32.6-130.4 23.7-28.7 56.3-44 90.9-44H812c34.6 0 67.2 15.8 90.9 44 28.7 34.6 41 83 32.6 130.4L831.7 727.1c-7.4 41-40.5 70.7-78.6 70.7zM648.9 456.9c-32.6 0-59.3 26.7-59.3 59.3s26.7 59.3 59.3 59.3c32.6 0 59.3-26.7 59.3-59.3s-26.2-59.3-59.3-59.3zM648.9 552.2c19.8 0 36.1-16.3 36.1-36.1S668.7 480 648.9 480s-36.1 16.3-36.1 36.1 16.3 36.1 36.1 36.1m0 46.5c-45.5 0-82.5-37.1-82.5-82.5s37.1-82.5 82.5-82.5c45.5 0 82.5 37.1 82.5 82.5s-37 82.5-82.5 82.5zM737.3 316.1c-27.2 0-48.9 22.2-48.9 48.9 0 27.2 22.2 48.9 48.9 48.9 27.2 0 48.9-22.2 48.9-48.9 0.5-26.7-21.7-48.9-48.9-48.9zM737.3 391.2c14.3 0 25.7-11.9 25.7-25.7s-11.9-25.7-25.7-25.7c-14.3 0-25.7 11.9-25.7 25.7s11.4 25.7 25.7 25.7m0 46.4c-40 0-72.1-32.6-72.1-72.1 0-40 32.6-72.1 72.1-72.1 40 0 72.1 32.6 72.1 72.1 0.6 39.5-32 72.1-72.1 72.1zM600.5 234.1c-24.7 0-45 20.3-45 45s20.3 45 45 45 45-20.3 45-45c-0.5-24.8-20.3-45-45-45zM600.5 300.3c11.9 0 21.7-9.9 21.7-21.7 0-11.9-9.9-21.7-21.7-21.7-11.9 0-21.7 9.9-21.7 21.7 0 11.8 9.3 21.7 21.7 21.7m0 46.4c-37.5 0-68.2-30.6-68.2-68.2s30.6-68.2 68.2-68.2 68.2 30.6 68.2 68.2c-0.5 37.6-31.2 68.2-68.2 68.2zM414.2 632.3H82.8c-12.8 0-23.2 10.4-23.2 23.2 0 12.8 10.4 23.2 23.2 23.2h331.5c12.8 0 23.2-10.4 23.2-23.2s-10.4-23.2-23.3-23.2zM358.9-21.3H131.7c-12.8 0-23.2 10.4-23.2 23.2L107 765.2c0 12.8 10.4 23.2 23.2 23.2 12.8 0 23.2-10.4 23.2-23.2l2-740.5h204c12.8 0 23.2-10.4 23.2-23.2 0-12.9-10.8-22.8-23.7-22.8zM528.4-16.4c-26.7 0-51.9 11.9-71.1 33.6-24.2 27.2-35.6 66.7-31.1 105.7 1.5 11.9 11.4 20.3 23.2 20.3h442.2c11.9 0 21.7-8.9 23.2-20.3 4.4-39-6.9-78.6-31.1-105.7-19.3-21.7-44.5-33.6-71.1-33.6H528.4zM891.5 120.5c6.9-59.3-29.6-113.1-79-113.1H528.4c-49.4 0-86 54.3-79 113.1h442.1m0 45.9H449.3c-23.2 0-43-17.3-45.9-41-5.4-45.5 8.4-91.9 36.6-124 23.7-26.7 54.8-41 88.4-41h284.1c33.6 0 64.7 14.8 88.4 41 28.7 32.1 42 78.6 36.6 124-3 23.7-22.3 41-46 41z"  horiz-adv-x="1024" />

    
    <glyph glyph-name="search" unicode="&#58882;" d="M992.262-59.396 749.71 146.898c-25.074 22.566-51.89 32.926-73.552 31.926C733.414 245.892 768 332.902 768 428 768 640.078 596.078 812 384 812 171.924 812 0 640.078 0 428c0-212.078 171.922-384 384-384 95.098 0 182.108 34.586 249.176 91.844-1-21.662 9.36-48.478 31.926-73.552l206.294-242.552c35.322-39.246 93.022-42.554 128.22-7.356S1031.508-94.718 992.262-59.396zM384 172c-141.384 0-256 114.616-256 256S242.616 684 384 684s256-114.616 256-256S525.386 172 384 172z"  horiz-adv-x="1024" />

    
    <glyph glyph-name="search1" unicode="&#59476;" d="M992.256 24.59648l-242.54464 206.29504c-25.06752 22.56896-51.89632 32.93184-73.54368 31.92832 57.26208 67.072 91.83232 154.07104 91.83232 249.18016 0 212.0704-171.9296 384-384 384s-384-171.9296-384-384 171.9296-384 384-384c95.08864 0 182.10816 34.59072 249.18016 91.8528-1.00352-21.66784 9.35936-48.47616 31.92832-73.54368l206.29504-242.54464c35.328-39.23968 93.02016-42.55744 128.22528-7.35232s31.88736 92.89728-7.35232 128.22528zM384 256c-141.39392 0-256 114.60608-256 256s114.60608 256 256 256 256-114.60608 256-256-114.60608-256-256-256z"  horiz-adv-x="1025" />

    
    <glyph glyph-name="code" unicode="&#58915;" d="M832-128H192c-106.048 0-192 86.016-192 192V704a192 192 0 0 0 192 192h640c105.984 0 192-85.952 192-192v-640c0-105.984-86.016-192-192-192z m64 832a64 64 0 0 1-64 64H192C156.672 768 128 739.328 128 704v-640a64 64 0 0 1 64-64h640c35.392 0 64 28.608 64 64V704z m-128-384v-64c0-105.984-86.016-192-192-192v128c35.392 0 64 28.608 64 64v64a64 64 0 1 1 0 128v64a64 64 0 0 1-64 64V704c105.984 0 192-85.952 192-192v-64a64 64 0 1 0 0-128z m-512-64v64a64.021333 64.021333 0 0 0 0 128v64a192 192 0 0 0 192 192v-128c-35.328 0-64-28.672-64-64v-64a64.021333 64.021333 0 0 1 0-128v-64a64 64 0 0 1 64-64v-128c-106.048 0-192 86.016-192 192z"  horiz-adv-x="1024" />

    
    <glyph glyph-name="ceshi" unicode="&#59098;" d="M820.736 88.51199999999994l96.288-96.288a32 32 0 1 0-45.248-45.248l-105.696 105.696a224 224 0 1 0 54.656 35.84z m-143.04 455.424a288.352 288.352 0 0 1-81.184-9.92c-25.28 19.84-53.888 33.44-84.512 39.04v-77.568a289.6 289.6 0 0 1-64-58.464V573.12c-108.544-19.968-192-140-192-285.088 0-145.088 83.456-265.12 192-285.088v72.064a289.6 289.6 0 0 1 64-58.464v-13.6c5.344 0.96 10.656 2.24 15.872 3.68a286.144 286.144 0 0 1 83.168-32.128C571.744-50.111999999999966 527.2-64 480-64c-100.416 0-188.864 62.816-240.384 158.08A64 64 0 0 1 160 32a32 32 0 0 0-64 0 128 128 0 0 0 115.84 127.424A415.904 415.904 0 0 0 193.152 256H96a32 32 0 0 0 0 64h97.184c2.496 33.792 8.896 66.24 18.624 96.576A128 128 0 0 0 96 544a32 32 0 0 0 64 0 64 64 0 0 1 79.616-62.08c17.28 31.936 38.688 60.224 63.328 83.712a192 192 0 1 0 354.144 0c7.136-6.848 14.048-14.08 20.64-21.696z m116.32-26.976c3.84 8.192 5.984 17.376 5.984 27.04a32 32 0 0 0 64 0c0-21.92-5.504-42.56-15.232-60.608a288 288 0 0 1-54.72 33.568zM356.544 606.0799999999999A244.448 244.448 0 0 0 480 640c44.16 0 86.048-12.16 123.456-33.92A128.128 128.128 0 0 1 480 768a128 128 0 0 1-123.456-161.92zM672 96a160 160 0 1 1 0 320 160 160 0 0 1 0-320z"  horiz-adv-x="1024" />

    
    <glyph glyph-name="icon_xinyong_xianxing_jijin-135" unicode="&#58952;" d="M870.4 896H153.6C69.12 896 0 826.88 0 742.4v-716.8c0-84.48 69.12-153.6 153.6-153.6h716.8c84.48 0 153.6 69.12 153.6 153.6V742.4c0 84.48-69.12 153.6-153.6 153.6z m102.4-870.4c0-56.32-46.08-102.4-102.4-102.4H153.6c-56.32 0-102.4 46.08-102.4 102.4V742.4c0 56.32 46.08 102.4 102.4 102.4h716.8c56.32 0 102.4-46.08 102.4-102.4v-716.8zM793.6 716.8H588.8c-14.08 0-25.6-11.52-25.6-25.6s11.52-25.6 25.6-25.6h168.96L570.88 478.72c-10.24-10.24-10.24-25.6 0-35.84 5.12-5.12 11.52-7.68 17.92-7.68s12.8 2.56 17.92 7.68L793.6 629.76V460.8c0-14.08 11.52-25.6 25.6-25.6s25.6 11.52 25.6 25.6V665.6c0 28.16-23.04 51.2-51.2 51.2zM453.12 325.12c-10.24 10.24-25.6 10.24-35.84 0L230.4 138.24V307.2c0 14.08-11.52 25.6-25.6 25.6s-25.6-11.52-25.6-25.6v-204.8c0-28.16 23.04-51.2 51.2-51.2h204.8c14.08 0 25.6 11.52 25.6 25.6s-11.52 25.6-25.6 25.6H266.24l186.88 186.88c10.24 10.24 10.24 25.6 0 35.84z"  horiz-adv-x="1024" />

    
    <glyph glyph-name="liebiao" unicode="&#58892;" d="M128 832h288a64 64 0 0 0 64-64v-288a64 64 0 0 0-64-64H128a64 64 0 0 0-64 64V768a64 64 0 0 0 64 64z m0-96v-224a32 32 0 0 1 32-32h224a32 32 0 0 1 32 32V736a32 32 0 0 1-32 32H160a32 32 0 0 1-32-32zM128 352h288a64 64 0 0 0 64-64v-288a64 64 0 0 0-64-64H128a64 64 0 0 0-64 64v288a64 64 0 0 0 64 64z m0-96v-224a32 32 0 0 1 32-32h224a32 32 0 0 1 32 32v224a32 32 0 0 1-32 32H160a32 32 0 0 1-32-32zM544 736m32 0l352 0q32 0 32-32l0 0q0-32-32-32l-352 0q-32 0-32 32l0 0q0 32 32 32ZM544 256m32 0l352 0q32 0 32-32l0 0q0-32-32-32l-352 0q-32 0-32 32l0 0q0 32 32 32ZM544 576m32 0l352 0q32 0 32-32l0 0q0-32-32-32l-352 0q-32 0-32 32l0 0q0 32 32 32ZM544 96m32 0l352 0q32 0 32-32l0 0q0-32-32-32l-352 0q-32 0-32 32l0 0q0 32 32 32Z"  horiz-adv-x="1024" />

    
    <glyph glyph-name="chajian" unicode="&#59036;" d="M627.2-64H166.4c-25.6 0-51.2 12.8-70.4 25.6-19.2 19.2-32 44.8-32 70.4v115.2c6.4 19.2 12.8 38.4 32 51.2 12.8 6.4 19.2 12.8 32 12.8s25.6-6.4 44.8-12.8H192c12.8-6.4 19.2-6.4 32-6.4s25.6 0 32 6.4c12.8 6.4 19.2 12.8 25.6 19.2 6.4 6.4 12.8 19.2 19.2 25.6 6.4 12.8 6.4 19.2 6.4 32s0 25.6-6.4 32c-6.4 12.8-12.8 19.2-19.2 25.6s-19.2 12.8-25.6 19.2c-12.8 6.4-19.2 6.4-32 6.4s-19.2 0-32-6.4h-6.4c-6.4-6.4-19.2-6.4-25.6-12.8-12.8-6.4-25.6-6.4-38.4-6.4-19.2 0-32 12.8-38.4 25.6-6.4 12.8-12.8 25.6-12.8 44.8V499.2c0 25.6 12.8 51.2 32 70.4 19.2 19.2 44.8 32 70.4 32H256c-6.4 19.2-6.4 32-6.4 51.2 0 25.6 6.4 51.2 12.8 70.4l38.4 57.6c19.2 19.2 38.4 32 57.6 38.4C384 832 403.2 832 428.8 832s51.2-6.4 70.4-12.8l57.6-38.4c19.2-19.2 32-38.4 38.4-57.6 12.8-25.6 12.8-44.8 12.8-70.4 0-19.2 0-38.4-6.4-51.2h25.6c25.6 0 51.2-12.8 70.4-32 19.2-19.2 25.6-44.8 25.6-70.4v-64c19.2 6.4 38.4 6.4 57.6 6.4 25.6 0 44.8-6.4 70.4-12.8 19.2-6.4 38.4-25.6 57.6-38.4 19.2-19.2 32-38.4 38.4-57.6 6.4-19.2 12.8-44.8 12.8-70.4 0-25.6-6.4-51.2-12.8-70.4-6.4-19.2-19.2-38.4-38.4-57.6-19.2-19.2-38.4-32-57.6-38.4-19.2-6.4-44.8-12.8-70.4-12.8-19.2 0-38.4 0-57.6 6.4v-51.2c0-25.6-12.8-51.2-25.6-70.4-19.2-19.2-44.8-32-70.4-32z m-486.4 192v-96c0-6.4 0-12.8 6.4-19.2 6.4-6.4 12.8-6.4 19.2-6.4h460.8c6.4 0 12.8 0 19.2 6.4 6.4 6.4 6.4 12.8 6.4 19.2v198.4l64-51.2c6.4-6.4 19.2-12.8 32-19.2 12.8-6.4 25.6-6.4 38.4-6.4 12.8 0 25.6 0 38.4 6.4 12.8 6.4 25.6 12.8 32 25.6 12.8 12.8 19.2 19.2 25.6 32 6.4 12.8 6.4 25.6 6.4 38.4 0 12.8 0 25.6-6.4 38.4-6.4 12.8-12.8 25.6-25.6 32-12.8 12.8-19.2 19.2-32 25.6-12.8 6.4-25.6 6.4-38.4 6.4-12.8 0-25.6 0-38.4-6.4-12.8-6.4-25.6-12.8-32-19.2l-64-51.2V486.4c0 6.4 0 12.8-6.4 19.2C640 512 640 512 627.2 512H454.4l51.2 64c19.2 19.2 25.6 38.4 25.6 64 0 12.8 0 32-6.4 44.8-6.4 12.8-12.8 25.6-25.6 32-12.8 12.8-19.2 19.2-32 25.6-12.8 6.4-25.6 6.4-44.8 6.4-12.8 0-25.6 0-44.8-6.4-12.8-6.4-25.6-12.8-32-25.6-12.8-12.8-19.2-19.2-25.6-32-6.4-12.8-6.4-25.6-6.4-44.8 0-12.8 0-25.6 6.4-38.4 6.4-12.8 12.8-25.6 19.2-32l51.2-64H166.4c-6.4 0-12.8 0-19.2-6.4-6.4-6.4-6.4-12.8-6.4-19.2v-89.6s6.4 0 6.4 6.4c6.4 0 6.4 6.4 12.8 6.4 19.2 6.4 38.4 12.8 64 12.8 19.2 0 44.8-6.4 64-12.8 19.2-6.4 38.4-19.2 51.2-32 12.8-12.8 25.6-32 32-51.2 6.4-19.2 12.8-38.4 12.8-64 0-19.2-6.4-44.8-12.8-64-6.4-19.2-19.2-38.4-32-51.2-12.8-12.8-32-25.6-51.2-32-19.2-6.4-38.4-12.8-64-12.8-19.2 0-44.8 6.4-64 12.8-6.4 12.8-12.8 19.2-19.2 19.2z"  horiz-adv-x="1024" />

    
    <glyph glyph-name="icon-test" unicode="&#58996;" d="M295.074 337.365c-0.058 16.724-0.507 32.912-0.582 48.403-1.047-16.994-0.843-33.116 0.582-48.403zM544.021 118.854l-0.125-0.012c0.042 0.008 0.071 0 0.125 0.012zM511.861 895.958c-281.893 0-510.332-228.435-510.332-510.448 0-188.419 102.073-352.985 253.936-441.421 15.341 43.19 40.323 78.383 71.458 105.488 24.683 21.697 53.832 38.811 86.466 50.521-59.332 51.66-61.069 65.725-40.693 63.785-30.232 23.648-53.072 55.464-65.308 92.131-243.595-19.382-27.481 494.415 204.825 372.299 98.143 51.61 192.411-9.662 249.625-99.385 78.968-122.644 88.71-298.555-57.808-311.715-13.384-22.241-30.595-40.759-50.359-55.581 10.107-3.402 5.799-20.006-28.534-61.783h-0.262c32.539-11.76 61.6-28.9 86.205-50.605 27.255-23.819 49.761-53.865 65.189-90.047 0.137-0.324 0.262-0.66 0.403-0.985 1.022-2.422 2.048-4.839 3.008-7.319 145.616 89.914 242.629 250.925 242.629 434.616 0.004 282.014-228.439 510.448-510.448 510.448zM326.927 49.573c-31.135-27.101-56.117-62.294-71.458-105.488l0.008-0.004c14.984 41.561 39.459 77.373 71.449 105.492zM779.63-49.136l0.054 0.033c-0.955 2.48-1.986 4.898-3.008 7.319 1.034-2.422 1.99-4.889 2.954-7.353zM543.535 118.804c0.006-0 0.014-0 0.021-0 0.121 0 0.238 0.014 0.351 0.040l0.114 0.010c8.557 1.79 89.054 49.716 109.65 42.778 19.765 14.822 36.975 33.34 50.359 55.581-4.968-0.444-10.094-0.727-15.428-0.789 34.736 50.397 52.279 112.334 41.918 193.582l-218.544-1.047-215.246 1.047c-1.767-13.328-2.816-28.808-2.893-44.519 0.729 4.794 1.173-11.391 1.235-28.119 4.399-47.231 20.014-86.757 43.576-120.941-5.569 0.067-10.958 0.34-16.29 0.813 23.442-33.497 52.485-59.651 87.095-75.918-5.154 19.562 79.634-21.95 85.217-21.447 19.782-2.484 28.846-1.657 48.864-1.072zM776.274-40.803c-15.432 36.182-37.939 66.224-65.189 90.047 27.894-24.604 50.085-55.033 65.189-90.047zM776.274-40.803c-15.104 35.014-37.299 65.443-65.189 90.047-24.604 21.705-53.666 38.844-86.205 50.605l-211.337 0.116c-0.397 0.37-0.873 0.662-1.398 0.849-31.381-12.431-60.53-29.545-85.214-51.242-31.994-28.123-56.466-63.935-71.449-105.492 75.338-43.871 162.913-69.019 256.383-69.019 98.222 0 189.931 27.753 267.765 75.799-9.347 24.096-21.456 44.91-36.283 63.456l32.927-55.119zM624.88 99.849h0.262c34.337 41.777 38.641 58.381 28.534 61.783-20.596 6.937-101.097-40.988-109.65-42.778-0.054-0.012-0.083-0.004-0.125-0.012-0.102-0.024-0.218-0.038-0.338-0.038-0.008 0-0.016 0-0.024 0-20.013-0.59-29.081-1.412-48.863 1.063-5.583-0.503-90.371 41.009-121.971 44.016-20.371 1.94-18.639-12.13 40.693-63.785 0.397-0.37 0.873-0.662 1.398-0.849l210.084 0.6zM761.839 528.928c-57.214 89.723-151.481 150.995-249.625 99.385 97.499 51.257 191.991-9.87 249.625-99.385zM295.074 337.365c-1.421 15.291-1.628 31.413-0.582 48.403 0.486 7.901 1.184 15.943 2.239 24.235l215.246-1.047v219.358h0.237c-232.306 122.116-448.416-391.676-186.737-411.325 4.262-0.32 8.653-0.515 13.168-0.569-23.558 34.188-39.177 73.709-43.572 120.945zM511.981 408.955v-0.012h2.592l215.952 1.059c10.36-81.249-7.182-143.186-41.918-193.582 6.39 0.083 12.576 0.451 18.68 1.092 143.265 12.858 133.524 188.769 54.556 311.413-57.633 89.515-152.125 150.642-249.625 99.385h-0.237v-219.354z"  horiz-adv-x="1025" />

    
    <glyph glyph-name="tupian" unicode="&#58898;" d="M892.10374-42.7H131.90374C59.20374-42.7 0.00374 16.5 0.00374 89.2V678.8C0.00374 751.5 59.20374 810.7 131.90374 810.7h760.2c72.7 0 131.9-59.2 131.9-131.9v-589.6c0-72.7-59.2-131.9-131.9-131.9z m-760.2 768c-25.7 0-46.5-20.9-46.5-46.5v-589.6c0-25.7 20.9-46.5 46.5-46.5h760.2c25.7 0 46.5 20.9 46.5 46.5V678.8c0 25.7-20.9 46.5-46.5 46.5H131.90374zM42.70374 64c-13.7 0-27.2 6.6-35.4 18.8-13.2 19.5-8 46.1 11.5 59.2l376 253.4c34.4 23.2 77.6 20.3 105.1-7.1l101.2-100.7c0.2 0.1 0.4 0.3 0.6 0.4l353.8 268.5c18.8 14.2 45.5 10.6 59.8-8.2 14.2-18.8 10.6-45.5-8.2-59.8L653.30374 220.2c-34.6-26.3-80.6-24.6-109.4 4L442.80374 324.9c-0.1-0.1-0.2-0.1-0.3-0.2l-376-253.4c-7.3-4.9-15.6-7.3-23.8-7.3zM234.70374 576m-64 0a64 64 0 1 1 128 0 64 64 0 1 1-128 0Z"  horiz-adv-x="1024" />

    
    <glyph glyph-name="fengexian" unicode="&#58990;" d="M814.81 169.307l-88.117-88.118h-49.748l137.866 137.866v-49.748z m0-64.758v-23.36h-23.359l23.36 23.36z m0 179.264L612.188 81.189H562.44l216.293 216.294h36.078v-13.67z m-100.835 13.67L497.68 81.189h-49.747l216.293 216.294h49.748z m-114.55 0L383.133 81.189h-49.747l216.293 216.294h49.748z m-114.505 0L268.627 81.189h-49.748l216.294 216.294h49.747z m-114.506 0L209.19 136.258v49.271l111.954 111.954h49.315z m-114.03 0l-47.195-47.196v47.196h47.196z m558.427 326.04L705.063 513.776h-49.747l159.495 159.495v-49.748z m0-64.758v-44.989h-44.99l44.99 44.989z m-51.219 128.046L590.558 513.776H540.81l173.035 173.035h49.747z m-114.505 0L476.052 513.776h-49.747l173.034 173.035h49.748z m-114.592 0L361.46 513.776h-49.748l173.035 173.035h49.748z m-114.463 0L246.997 513.776H209.19v11.896l161.139 161.139h49.747z m-114.506 0l-96.337-96.337v49.271l47.066 47.066h49.315zM122.672 427.259h778.656V384H122.672v43.259z"  horiz-adv-x="1024" />

    
    <glyph glyph-name="button-component" unicode="&#59072;" d="M992-32H32c-19.2 0-32 12.8-32 32V768c0 19.2 12.8 32 32 32h960c19.2 0 32-12.8 32-32v-768c0-19.2-12.8-32-32-32zM64 32h896v704H64v-704zM294.4 396.8c6.4 0 6.4 6.4 6.4 12.8 12.8 12.8 19.2 25.6 19.2 44.8 0 19.2-6.4 38.4-25.6 51.2-19.2 12.8-38.4 19.2-64 19.2H140.8v-281.6h89.6c25.6 0 51.2 6.4 70.4 25.6 19.2 19.2 32 38.4 32 64 0 19.2-6.4 38.4-19.2 51.2-6.4 6.4-12.8 6.4-19.2 12.8z m-51.2 32c-6.4-6.4-12.8-12.8-25.6-12.8h-12.8v51.2h19.2c32 0 32-12.8 32-19.2 0-12.8-6.4-19.2-12.8-19.2z m-38.4-70.4h19.2c44.8 0 44.8-19.2 44.8-25.6-6.4-12.8-6.4-19.2-12.8-25.6-6.4 0-12.8-6.4-25.6-6.4h-25.6v57.6zM371.2 467.2H448v-224h64V467.2h70.4v57.6H371.2zM819.2 524.8v-172.8l-108.8 172.8h-64v-281.6h64V416l108.8-172.8h64V524.8z"  horiz-adv-x="1024" />

    
    <glyph glyph-name="duoxuankuangxuanzhong" unicode="&#58889;" d="M853.26848 895.95904H170.65472C76.40576 895.95904 0 819.55328 0 725.30944v-682.61888c0-94.24896 76.40576-170.6496 170.65472-170.6496h682.61376c94.24384 0 170.65472 76.40576 170.65472 170.6496V725.30944c0 94.24384-76.41088 170.6496-170.65472 170.6496z m0-341.30944v-28.4416h-28.4416v-28.4416h-28.4416v-28.4416h-28.4416v-28.4416h-28.4416v-28.4416h-28.4416V384h-28.4416v-28.4416h-28.4416v-28.4416h-28.4416v-28.4416h-28.4416v-28.4416h-28.4416v-28.4416h-28.4416v-28.4416h-28.4416v-28.4416h-28.4416v-28.4416h-28.4416v-28.4416h-28.4416v-28.4416h-28.4416v28.4416h-28.4416v28.4416h-28.4416v28.4416h-28.4416v28.4416h-28.4416v28.4416h-28.4416v28.4416h-28.4416v28.4416h-28.4416v28.4416h-28.4416V384h28.4416v28.4416h28.4416V440.8832h28.4416v-28.4416h28.4416V384h28.4416v-28.4416h28.4416v-28.4416h28.4416v-28.4416h28.4416v-28.4416h28.4416v28.4416h28.4416v28.4416h28.4416v28.4416h28.4416V384h28.4416v28.4416h28.4416V440.8832h28.4416v28.4416h28.4416V497.7664h28.4416v28.4416h28.4416V554.6496h28.4416v28.4416h28.4416V611.5328h28.4416v28.4416h28.4416v-28.4416h28.4416v-28.4416h28.4416v-28.4416z"  horiz-adv-x="1024" />

    
    <glyph glyph-name="shijian" unicode="&#59176;" d="M512 802.909091c230.4 0 418.909091-188.509091 418.909091-418.909091s-188.509091-418.909091-418.909091-418.909091S93.090909 153.6 93.090909 384 281.6 802.909091 512 802.909091m0 93.090909C228.072727 896 0 667.927273 0 384s228.072727-512 512-512 512 228.072727 512 512S795.927273 896 512 896zM674.909091 151.272727c-13.963636 0-25.6 4.654545-34.909091 16.290909l-162.909091 186.181819c-6.981818 6.981818-11.636364 18.618182-11.636364 30.254545V616.727273c0 25.6 20.945455 46.545455 46.545455 46.545454s46.545455-20.945455 46.545455-46.545454v-214.109091l151.272727-172.218182c16.290909-18.618182 13.963636-48.872727-4.654546-65.163636-9.309091-9.309091-18.618182-13.963636-30.254545-13.963637z"  horiz-adv-x="1024" />

    
    <glyph glyph-name="riqi" unicode="&#58891;" d="M358.3 299c0-11-9-20-20-20h-63.8c-11 0-20 9-20 20v63.8c0 11 9 20 20 20h63.8c11 0 20-9 20-20V299zM358.3 91.4c0-11-9-20-20-20h-63.8c-11 0-20 9-20 20v63.8c0 11 9 20 20 20h63.8c11 0 20-9 20-20v-63.8zM564.9 299c0-11-9-20-20-20h-63.8c-11 0-20 9-20 20v63.8c0 11 9 20 20 20h63.8c11 0 20-9 20-20V299zM564.9 91.4c0-11-9-20-20-20h-63.8c-11 0-20 9-20 20v63.8c0 11 9 20 20 20h63.8c11 0 20-9 20-20v-63.8zM772.2 299c0-11-9-20-20-20h-63.8c-11 0-20 9-20 20v63.8c0 11 9 20 20 20h63.8c11 0 20-9 20-20V299zM772.2 91.4c0-11-9-20-20-20h-63.8c-11 0-20 9-20 20v63.8c0 11 9 20 20 20h63.8c11 0 20-9 20-20v-63.8zM361 551.1c0-11-9-20-20-20h-15c-11 0-20 9-20 20V776.7c0 11 9 20 20 20h15c11 0 20-9 20-20v-225.6zM720 551.1c0-11-9-20-20-20h-15c-11 0-20 9-20 20V776.7c0 11 9 20 20 20h15c11 0 20-9 20-20v-225.6zM118 693.6c-11 0-20-9-20-20v-685.5c0-11 9-20 20-20h790c11 0 20 9 20 20V673.6c0 11-9 20-20 20H118z m755-650.5c0-11-9-20-20-20H173c-11 0-20 9-20 20V618.7c0 11 9 20 20 20h680c11 0 20-9 20-20v-575.6zM118.7 485.5h790.5v-55H118.7z"  horiz-adv-x="1024" />

    
    <glyph glyph-name="link" unicode="&#58904;" d="M288.5-88.5c-66.2 0-128.5 25.8-175.4 72.6l-0.1 0.1C66.3 31 40.5 93.3 40.5 159.5c0 66.2 25.8 128.5 72.6 175.4l0.1 0.1 143.9 143.9c9.4 9.4 24.6 9.4 33.9 0 9.4-9.4 9.4-24.6 0-33.9L147 301l-0.1-0.1c-77.9-78-77.9-204.8 0.1-282.8l0.1-0.1c78-77.9 204.8-77.9 282.8 0.1l144 144 0.1 0.1c77.9 78 77.8 204.8-0.1 282.7-27.1 27.1-61.1 45.8-98.5 54-13 2.8-21.2 15.6-18.3 28.6 2.8 13 15.6 21.2 28.6 18.3 46.4-10.1 88.7-33.3 122.3-66.9 46.7-46.9 72.5-109.1 72.5-175.4 0-66.2-25.8-128.5-72.6-175.4l-0.1-0.1-143.9-143.9c-46.9-46.8-109.1-72.6-175.4-72.6z m302.4 233.6zM544.5 220.7c-1.7 0-3.4 0.2-5.1 0.6-46.4 10.1-88.7 33.3-122.3 66.9-46.8 46.8-72.6 109-72.6 175.3s25.8 128.5 72.6 175.4l144 144C608 829.7 670.2 855.5 736.5 855.5S865 829.7 911.9 782.9l0.1-0.1c46.7-46.8 72.5-109.1 72.5-175.3 0-66.2-25.8-128.5-72.6-175.4l-0.1-0.1-143.9-143.9c-9.4-9.4-24.6-9.4-33.9 0-9.4 9.4-9.4 24.6 0 33.9l144 144 0.1 0.1c77.9 78 77.9 204.8-0.1 282.8l-0.1 0.1c-78 77.9-204.8 77.9-282.8-0.1l-144-144c-37.8-37.8-58.6-88-58.6-141.4 0-53.4 20.8-103.6 58.6-141.4 27.1-27.1 61.1-45.8 98.5-54 13-2.8 21.2-15.6 18.3-28.6-2.4-11.2-12.3-18.8-23.4-18.8z"  horiz-adv-x="1024" />

    
    <glyph glyph-name="huakuai" unicode="&#59166;" d="M1797.568732 312.017611H39.556269V688.46144h1758.012463v-376.443829M1797.568732 272.461341H39.556269a39.556269 39.556269 0 0 0-39.556269 39.55627V688.46144a39.556269 39.556269 0 0 0 39.556269 39.55627h1758.012463a39.556269 39.556269 0 0 0 39.556269-39.55627v-376.443829a39.556269 39.556269 0 0 0-39.556269-39.55627zM79.112539 351.57388h1678.899923V648.905171H79.112539zM948.427484 896m86.62823 0l275.311634 0q86.62823 0 86.62823-86.62823l0-618.396343q0-86.62823-86.62823-86.62823l-275.311634 0q-86.62823 0-86.62823 86.62823l0 618.396343q0 86.62823 86.62823 86.62823Z"  horiz-adv-x="2376" />

    
    <glyph glyph-name="kaiguan" unicode="&#59167;" d="M36.255471 859.744529m373.310497 0l864.692978 0q373.310497 0 373.310498-373.310497l0 0q0-373.310497-373.310498-373.310498l-864.692978 0q-373.310497 0-373.310497 373.310498l0 0q0 373.310497 373.310497 373.310497ZM1274.258946 76.868064H409.565968a409.565968 409.565968 0 0 0 0 819.131936h864.692978a409.565968 409.565968 0 1 0 0-819.131936zM409.565968 823.489058a337.055027 337.055027 0 0 1 0-674.110053h864.692978a337.055027 337.055027 0 1 1 0 674.110053zM434.461391 486.434032m-245.69124 0a245.69124 245.69124 0 1 1 491.382481 0 245.69124 245.69124 0 1 1-491.382481 0Z"  horiz-adv-x="2104" />

    
    <glyph glyph-name="xuanzeqi" unicode="&#59168;" d="M1001.951626-105.951626H22.048374V873.951626h979.903252v-979.903252M1001.951626-128H22.048374a22.048374 22.048374 0 0 0-22.048374 22.048374V873.951626a22.048374 22.048374 0 0 0 22.048374 22.048374h979.903252a22.048374 22.048374 0 0 0 22.048374-22.048374v-979.903252a22.048374 22.048374 0 0 0-22.048374-22.048374zM44.096749-83.903251h935.806502V851.903251H44.096749zM761.036388 873.951626h240.988732v-256.643078h-240.988732zM1001.951626 595.260174H22.048374a22.048374 22.048374 0 0 0-22.048374 22.048374V873.951626a22.048374 22.048374 0 0 0 22.048374 22.048374h979.903252a22.048374 22.048374 0 0 0 22.048374-22.048374v-256.643078a22.048374 22.048374 0 0 0-22.048374-22.048374zM44.096749 639.356922h935.806502V851.903251H44.096749zM876.496376 708.882796l50.711261 52.034164h-101.422523l50.711262-52.034164zM400.060403 133.912639l273.612977 273.612976 49.888121-49.888121-273.612976-273.620326zM341.948238 290.220914l153.66982-153.669819-49.888122-49.888122-153.677169 153.66982z"  horiz-adv-x="1024" />

    
    <glyph glyph-name="pingfen" unicode="&#58893;" d="M724.5 18.7c-7.8 0-15.5 2.9-21.5 8.3L575.8 142.6l-167.4-39.2c-11.9-2.7-24.3 1.4-32 10.8-7.8 9.4-9.5 22.4-4.5 33.5l70.7 156.7-89 147c-6.3 10.4-6.2 23.5 0.4 33.8 6.5 10.3 18.3 16 30.5 14.6L555.4 481l112.3 130.1c8 9.2 20.4 13.2 32.3 10 11.8-3 20.8-12.5 23.3-24.5l35-168.3 158.5-66.7c11.2-4.8 18.8-15.4 19.5-27.6 0.7-12.2-5.5-23.7-16.1-29.7l-149.3-85.2L756.4 48c-1-12.2-8.8-22.7-20.2-27.1-3.7-1.5-7.7-2.2-11.7-2.2zM584.9 209.6c7.9 0 15.6-2.9 21.5-8.3l91.7-83.3 10.4 123.5c0.9 10.5 6.9 19.9 16 25.1L832.1 328l-114.2 48c-9.7 4.1-16.8 12.7-18.9 23l-25.2 121.3-81-93.8c-6.9-8-17.3-11.9-27.7-10.9L442 429.2l64.2-106c5.5-9 6.1-20.1 1.8-29.8l-51-112.9 120.6 28.3c2.4 0.5 4.9 0.8 7.3 0.8zM637.4 627.2c-5.5 10.7-16.6 17.9-28.6 17.9l-142.9 0.9-80.6 118.2c-6.8 9.8-18.8 15.4-30.7 13.7-12.4-1.7-22.2-10.2-26-21.8l-44.8-135.7-137.4-39.7c-11.9-3.4-20.5-13.2-22.6-25.2-2.1-11.9 2.6-24.3 12.4-31.6l115.2-84.5-4.4-142.9c-0.4-12.4 6-23.5 16.6-29.4 4.7-2.6 10.2-3.8 15.4-3.8 6.4 0 12.8 2.1 18.3 6.4l98.6 70.4-33.3 55-49.9-35.8 3 94.7c0.4 10.7-4.3 20.9-12.8 26.9l-76.4 56.3 90.9 26.5c10.2 3 18.3 10.7 21.3 20.9l30.3 90 53.3-78.5c6-9 15.8-14.1 26-14.1l95.1-0.4-55.9-71.7 74.9-8.1 71.1 91.7c4.7 5.1 6.8 12.4 6.8 18.8 0.1 5.1-0.7 10.2-2.9 14.9z"  horiz-adv-x="1024" />

    
    <glyph glyph-name="shijianxuanzeqi" unicode="&#58916;" d="M846.8-58.3H177.4c-25.8 0-46.9 21-46.9 46.9v723c0 25.8 21 46.9 46.9 46.9h669.5c25.8 0 46.9-21 46.9-46.9v-723c-0.1-25.9-21.1-46.9-47-46.9zM177.4 718.3c-3.7 0-6.7-3-6.7-6.7v-723c0-3.7 3-6.7 6.7-6.7h669.5c3.7 0 6.7 3 6.7 6.7v723c0 3.7-3 6.7-6.7 6.7H177.4zM873.6 524.2h-723c-11.1 0-20.1 9-20.1 20.1s9 20.1 20.1 20.1h723c11.1 0 20.1-9 20.1-20.1s-9-20.1-20.1-20.1zM726.3 330H297.9c-11.1 0-20.1 9-20.1 20.1 0 11.1 9 20.1 20.1 20.1h428.5c11.1 0 20.1-9 20.1-20.1-0.1-11.1-9.1-20.1-20.2-20.1zM726.3 129.2H297.9c-11.1 0-20.1 9-20.1 20.1s9 20.1 20.1 20.1h428.5c11.1 0 20.1-9 20.1-20.1s-9.1-20.1-20.2-20.1zM338 631.3c-11.1 0-20.1 9-20.1 20.1V812c0 11.1 9 20.1 20.1 20.1s20.1-9 20.1-20.1v-160.7c0-11-9-20-20.1-20zM686.2 631.3c-11.1 0-20.1 9-20.1 20.1V812c0 11.1 9 20.1 20.1 20.1s20.1-9 20.1-20.1v-160.7c0-11-9-20-20.1-20z"  horiz-adv-x="1024" />

    
    <glyph glyph-name="danxuankuang" unicode="&#58931;" d="M957.91 383.07c0-247.03-200.26-447.29-447.29-447.29S63.33 136.03 63.33 383.07 263.59 830.35 510.62 830.35 957.91 630.1 957.91 383.07zM510.62 740.9c-197.62 0-357.83-160.21-357.83-357.83S313 25.23 510.62 25.23s357.83 160.21 357.83 357.83S708.25 740.9 510.62 740.9zM510.62 383.07m-178.92 0a178.92 178.92 0 1 1 357.84 0 178.92 178.92 0 1 1-357.84 0Z"  horiz-adv-x="1024" />

    
    <glyph glyph-name="jiliandongxuanzeqi" unicode="&#58902;" d="M950.86-31.35H73.14c-34.57 0-62.69 28.12-62.69 62.69V741.88c0 34.57 28.12 62.69 62.69 62.69h877.71c34.57 0 62.69-28.12 62.69-62.69v-710.53c0.01-34.57-28.11-62.7-62.68-62.7zM73.14 762.78c-11.52 0-20.9-9.38-20.9-20.9v-710.53c0-11.53 9.38-20.9 20.9-20.9h877.71c11.53 0 20.9 9.37 20.9 20.9V741.88c0 11.52-9.37 20.9-20.9 20.9H73.14zM532.9 778.45h41.8v-794.12h-41.8zM282.12 574.69H135.84c-11.54 0-20.9 9.36-20.9 20.9s9.36 20.9 20.9 20.9h146.29c11.54 0 20.9-9.36 20.9-20.9-0.01-11.54-9.37-20.9-20.91-20.9zM773.22 506.78H647.84c-11.55 0-20.9 9.36-20.9 20.9s9.35 20.9 20.9 20.9h125.39c11.55 0 20.9-9.36 20.9-20.9-0.01-11.55-9.35-20.9-20.91-20.9zM898.61 318.69H647.84c-11.55 0-20.9 9.35-20.9 20.9s9.35 20.9 20.9 20.9h250.78c11.55 0 20.9-9.35 20.9-20.9s-9.36-20.9-20.91-20.9zM898.61 130.61H647.84c-11.55 0-20.9 9.35-20.9 20.9s9.35 20.9 20.9 20.9h250.78c11.55 0 20.9-9.35 20.9-20.9s-9.36-20.9-20.91-20.9zM376.17 522.45c-5.99 0-11.93 2.56-16.06 7.52-7.39 8.87-6.19 22.04 2.67 29.43l43.43 36.19-43.43 36.19c-8.87 7.39-10.06 20.56-2.67 29.43 7.39 8.86 20.56 10.06 29.43 2.67l62.69-52.24c4.77-3.97 7.52-9.85 7.52-16.05 0-6.2-2.76-12.08-7.52-16.05l-62.69-52.24a20.803 20.803 0 0 0-13.37-4.85z"  horiz-adv-x="1024" />

    
    <glyph glyph-name="wenbenyu" unicode="&#59587;" d="M970.105263-74.105263H53.894737V842.105263h916.210526v-916.210526zM107.789474-20.210526h808.421052V788.210526H107.789474v-808.421052zM646.736842 464.842105V518.736842h-107.789474v-269.473684h53.894737v-53.894737H431.157895v53.894737h53.894737V518.736842H377.263158v-53.894737H323.368421V572.631579h377.263158v-107.789474h-53.894737zM646.736842 33.684211v53.894736h161.684211v161.684211h53.894736v-215.578947h-215.578947z"  horiz-adv-x="1024" />

    
    <glyph glyph-name="Advice_icon" unicode="&#59013;" d="M869.209302-68.46511599999997H154.790698a95.362977 95.362977 0 0 0-95.255814 95.255814V741.209302a95.362977 95.362977 0 0 0 95.255814 95.255814h428.651162a23.813953 23.813953 0 0 0 0-47.627907H154.790698a47.627907 47.627907 0 0 1-47.627907-47.627907v-714.418604a47.627907 47.627907 0 0 1 47.627907-47.627907h714.418604a47.627907 47.627907 0 0 1 47.627907 47.627907V479.255814a23.813953 23.813953 0 0 0 47.627907 0v-452.465116a95.362977 95.362977 0 0 0-95.255814-95.255814zM948.057302 753.044837L880.997209 820.10493a42.293581 42.293581 0 0 1-59.737302 0l-47.627907-47.627907-29.922233-29.922232-329.561302-329.561303 0.738233-0.738232a20.932465 20.932465 0 0 1-9.33507-9.60893l-79.026605-166.828652a27.981395 27.981395 0 0 1 37.25693-37.25693l166.828652 79.026605a20.932465 20.932465 0 0 1 9.60893 9.33507l0.738232-0.738233L870.51907 615.757395l29.874604 29.874605 47.627907 47.627907a42.293581 42.293581 0 0 1 0.035721 59.78493zM381.797209 253.84483699999998l61.547163 129.940837 68.393675-68.393674zM540.94586 345.89767400000005L473.897674 412.993488 773.584372 712.632558l67.048186-67.012465z m262.50121 396.621396l47.627907 47.627907 67.060093-67.060093-47.627907-47.627907z"  horiz-adv-x="1024" />

    
    <glyph glyph-name="lianjie" unicode="&#59142;" d="M495.42 262.77c0.16-1 0.31-2 0.45-3l-1.07 8a156.87 156.87 0 0 0 0.12-39.92l1.07 8a155.31 155.31 0 0 0-10.51-38.79l3 7.16a152.85 152.85 0 0 0-12.61-23.66c-1.32-2-2.69-4-4.11-5.94-4.1-5.64 4.18 5.1-0.24-0.35q-4.67-5.73-9.86-11l-6-6-34.78-34.78-83.59-83.59c-2.27-2.27-4.53-4.55-6.81-6.82a159.66 159.66 0 0 0-10.82-9.82 15.76 15.76 0 0 1-2.25-1.81c0.8 1 6.07 4.58 2.07 1.63a137.83 137.83 0 0 0-5.25-3.71 152.09 152.09 0 0 0-24.66-13.43l7.15 3a154.43 154.43 0 0 0-38.44-10.63l8 1.07a155.17 155.17 0 0 0-41 0l8-1.07a154.55 154.55 0 0 0-38.44 10.63l7.16-3a152.6 152.6 0 0 0-24.67 13.43c-1.77 1.2-3.52 2.43-5.25 3.71-4 2.91 0.85-1 2.07-1.63a18.44 18.44 0 0 0-2.81 2.28q-5.34 4.36-10.22 9.27-4.67 4.66-8.9 9.71c-0.77 0.92-1.52 1.86-2.29 2.79-2.27 2.75 4.44-6 1.61-2.07-1.4 1.93-2.81 3.85-4.14 5.82a151.27 151.27 0 0 0-13.4 24.66l3-7.15a154.55 154.55 0 0 0-10.63 38.44l1.07-8a155.09 155.09 0 0 0 0 41l-1.07-8A154.55 154.55 0 0 0 137 167.67l-3-7.16a152.54 152.54 0 0 0 11.09 21.1c2.17 3.42 4.5 6.7 6.9 10 2.11 2.87-4.32-5.41-2-2.65 0.77 0.92 1.52 1.87 2.29 2.79q2.11 2.52 4.33 4.93c2.83 3.09 5.83 6 8.8 9L198.68 239l84.78 84.78c2.71 2.72 5.41 5.44 8.14 8.14 2.37 2.35 4.79 4.65 7.29 6.85 1.84 1.61 3.74 3.14 5.63 4.69 2.87 2.36-5.23-3.87-2.22-1.72 1.1 0.78 2.17 1.58 3.26 2.36a152.37 152.37 0 0 0 27.64 15.3l-7.16-3a154.87 154.87 0 0 0 38.79 10.5l-8-1.07a155.89 155.89 0 0 0 39.91-0.12l-8 1.07c1-0.13 2-0.28 3.05-0.44 8.26-1.26 15.58-1.37 23.08 3 6.21 3.64 12.14 10.76 13.76 17.9 1.75 7.67 1.37 16.28-3 23.08-3.94 6.11-10.37 12.62-17.89 13.76-31.59 4.82-64 3.3-94.06-8.47-24.56-9.61-46.44-23.33-65.18-42q-25.47-25.4-50.87-50.87l-66.93-66.93c-4.52-4.52-9.09-9-13.55-13.57a181.86 181.86 0 0 1-44-75.55c-8.08-27.76-8.7-56.84-3.49-85.15 5.33-28.94 18.91-55.28 37-78.22 34.54-43.82 91.75-69 147.36-66a182.74 182.74 0 0 1 82.69 24.42c14.49 8.52 27.51 19.34 39.37 31.2l57.5 57.5 62.86 62.86a268.66 268.66 0 0 1 26.11 29.7c19.33 26 29.61 57.4 32.79 89.39 1.55 15.59 0.19 30.9-2.16 46.34-1.06 6.92-8 14.53-13.77 17.9-6.42 3.75-15.88 5.35-23.08 3s-14.23-6.84-17.89-13.77c-4-7.58-4.31-14.66-3-23.07zM616.2 343.94c31.58-4.82 64-3.3 94.06 8.46 24.56 9.62 46.44 23.34 65.18 42q25.47 25.4 50.87 50.87l66.93 66.93c4.52 4.52 9.1 9 13.55 13.57a181.86 181.86 0 0 1 44 75.55c8.08 27.76 8.7 56.84 3.49 85.15-5.33 28.94-18.91 55.28-37 78.22-34.54 43.82-91.75 69.05-147.36 66a182.74 182.74 0 0 1-82.69-24.42c-14.49-8.52-27.51-19.34-39.37-31.2l-57.5-57.5-62.86-62.86A268.66 268.66 0 0 1 501.45 625c-19.33-26-29.61-57.4-32.79-89.39-1.55-15.59-0.19-30.89 2.16-46.33 1.06-6.92 8-14.53 13.77-17.9 6.42-3.76 15.88-5.35 23.07-3s14.24 6.84 17.9 13.76c4 7.58 4.3 14.67 3 23.08-0.16 1-0.31 2-0.45 3.05l1.07-8a156.34 156.34 0 0 0-0.11 39.91l-1.07-8a154.87 154.87 0 0 0 10.5 38.79l-3-7.15a152.41 152.41 0 0 0 12.62 23.65c1.31 2 2.68 4 4.1 5.94 4.1 5.64-4.18-5.1 0.24 0.35q4.66 5.73 9.86 11l6 6 34.78 34.78 83.58 83.59c2.28 2.27 4.54 4.55 6.82 6.82 3.46 3.43 7.06 6.72 10.82 9.82a15.76 15.76 0 0 1 2.25 1.81c-0.8-1-6.07-4.58-2.07-1.63 1.72 1.28 3.47 2.51 5.25 3.71a152.09 152.09 0 0 0 24.66 13.43l-7.15-3a154.43 154.43 0 0 0 38.44 10.63l-8-1.07a155.17 155.17 0 0 0 41 0l-8 1.07a154.55 154.55 0 0 0 38.44-10.63l-7.16 3a152.6 152.6 0 0 0 24.67-13.43c1.77-1.2 3.52-2.43 5.25-3.71 4-2.91-0.85 1-2.07 1.63a18.44 18.44 0 0 0 2.81-2.28q5.34-4.44 10.25-9.35 4.67-4.67 8.9-9.71c0.77-0.92 1.52-1.86 2.29-2.79 2.27-2.75-4.44 6-1.61 2.08 1.4-1.94 2.81-3.86 4.14-5.83A151.27 151.27 0 0 0 890 695.09l-3 7.15a154.55 154.55 0 0 0 10.63-38.44l-1.07 8a155.09 155.09 0 0 0 0-40.95l1.07 8A154.55 154.55 0 0 0 887 600.33l3 7.16a152.54 152.54 0 0 0-11.09-21.1c-2.17-3.42-4.5-6.7-6.9-10-2.11-2.87 4.32 5.41 2 2.65-0.77-0.92-1.52-1.87-2.29-2.79q-2.12-2.52-4.33-4.93c-2.83-3.09-5.83-6-8.8-9L825.32 529l-84.78-84.78c-2.71-2.72-5.41-5.44-8.14-8.14-2.37-2.35-4.79-4.65-7.29-6.85-1.84-1.61-3.74-3.14-5.63-4.69-2.87-2.36 5.23 3.87 2.21 1.72-1.09-0.78-2.16-1.59-3.25-2.36a152.76 152.76 0 0 0-27.64-15.31l7.16 3a154.94 154.94 0 0 0-38.8-10.5l8 1.07a156 156 0 0 0-39.92 0.12l8-1.07c-1 0.14-2 0.29-3 0.45-8.26 1.25-15.58 1.36-23.08-3-6.21-3.64-12.13-10.76-13.76-17.9-1.75-7.67-1.37-16.27 3-23.08 3.94-6.11 10.38-12.62 17.9-13.76zM356.86 187.56l35.27 35.27 84 84 102.23 102.23 88.07 88.07c14.25 14.25 28.8 28.27 42.78 42.78 0.2 0.21 0.4 0.4 0.6 0.6 11.09 11.1 11.92 31.42 0 42.36s-30.51 11.83-42.35 0l-35.28-35.28-84-84L446 361.37l-88.11-88.07c-14.25-14.3-28.8-28.3-42.79-42.79l-0.6-0.6c-11.09-11.09-11.92-31.41 0-42.35s30.52-11.84 42.36 0z"  horiz-adv-x="1024" />

    
    <glyph glyph-name="shurukuang" unicode="&#58913;" d="M1024 768a39.862857 39.862857 0 0 0 36.571429-42.788571v-682.422858a39.862857 39.862857 0 0 0-36.571429-42.788571H146.285714a39.862857 39.862857 0 0 0-36.571428 42.788571V725.211429A39.862857 39.862857 0 0 0 146.285714 768h877.714286M1024 896H146.285714C65.462857 896 0 819.565714 0 725.211429v-682.422858C0-51.565714 65.462857-128 146.285714-128h877.714286c80.822857 0 146.285714 76.434286 146.285714 170.788571V725.211429C1170.285714 819.565714 1104.822857 896 1024 896zM310.857143 603.428571A54.857143 54.857143 0 0 1 256 548.571429v-329.142858a54.857143 54.857143 0 0 1 109.714286 0v329.142858A54.857143 54.857143 0 0 1 310.857143 603.428571zM365.714286 603.428571H256a54.857143 54.857143 0 0 1 0-109.714285h109.714286a54.857143 54.857143 0 0 1 0 109.714285zM365.714286 274.285714H256a54.857143 54.857143 0 0 1 0-109.714285h109.714286a54.857143 54.857143 0 0 1 0 109.714285zM556.251429 274.285714a54.857143 54.857143 0 1 1 54.857142-54.857143 54.857143 54.857143 0 0 1-54.857142 54.857143zM746.788571 274.285714a54.857143 54.857143 0 1 1 54.857143-54.857143 54.857143 54.857143 0 0 1-54.857143 54.857143z"  horiz-adv-x="1170" />

    
    <glyph glyph-name="jisuanqi" unicode="&#59983;" d="M823.68512 808.96H200.31488A113.39776 113.39776 0 0 1 87.04 695.68512v-623.37536A113.39776 113.39776 0 0 1 200.31488-40.96h623.37024A113.39776 113.39776 0 0 1 936.96 72.30976V695.68512A113.39776 113.39776 0 0 1 823.68512 808.96zM424.4224 177.12128a34.65728 34.65728 0 1 0-49.01376-49.01376l-34.21696 34.19648-34.21184-34.21184a34.65728 34.65728 0 1 0-49.01888 49.01376l34.21184 34.21696-34.21184 34.21696a34.65728 34.65728 0 1 0 49.01888 49.01376l34.21184-34.21184 34.21184 34.21184a34.65728 34.65728 0 0 0 49.01376-49.01376l-34.21184-34.21696z m34.4832 372.736a34.65728 34.65728 0 0 0-34.65728-34.6624H375.8592v-48.384a34.65728 34.65728 0 0 0-34.6624-34.6624 34.65728 34.65728 0 0 0-34.6624 34.6624v48.384h-48.39424a34.65728 34.65728 0 0 0-34.6624 34.6624 34.65728 34.65728 0 0 0 34.6624 34.65728h48.38912v48.384a34.65728 34.65728 0 0 0 34.6624 34.6624 34.65728 34.65728 0 0 0 34.6624-34.6624v-48.384h48.384a34.65728 34.65728 0 0 0 34.65728-34.65728z m341.61664-386.90304a34.65216 34.65216 0 0 0-34.65728-34.65728h-166.0928a34.65728 34.65728 0 0 0-34.6624 34.65728 34.6624 34.6624 0 0 0 34.6624 34.6624h166.0928a34.65728 34.65728 0 0 0 34.65728-34.6624z m0 129.21344a34.65216 34.65216 0 0 0-34.65728-34.65728h-166.0928a34.65728 34.65728 0 0 0-34.6624 34.65728 34.6624 34.6624 0 0 0 34.6624 34.65728h166.0928a34.65728 34.65728 0 0 0 34.65728-34.65728z m0 257.6896a34.65728 34.65728 0 0 0-34.65728-34.6624h-166.0928a34.6624 34.6624 0 0 0-34.6624 34.6624 34.6624 34.6624 0 0 0 34.6624 34.65728h166.0928a34.65728 34.65728 0 0 0 34.65728-34.65728z"  horiz-adv-x="1024" />

    
    <glyph glyph-name="wenjian" unicode="&#58911;" d="M191.802 62.951c-26.552 0-48.153 21.886-48.153 48.786v548.08c0 26.901 21.602 48.786 48.153 48.786h204.061c13.065 0 25.741-5.482 34.776-15.041l47.123-49.853c18.447-19.508 44.365-30.694 71.112-30.694H845.5c26.55 0 48.149-21.884 48.149-48.784v-452.494c0-26.9-21.6-48.786-48.149-48.786H191.802zM395.863 683.603c6.221 0 12.274-2.629 16.609-7.215l47.129-49.858c23.145-24.477 55.684-38.515 89.275-38.515H845.5c12.765 0 23.15-10.67 23.15-23.784v-452.494c0-13.116-10.385-23.786-23.15-23.786H191.802c-12.767 0-23.153 10.67-23.153 23.786v548.08c0 13.116 10.386 23.786 23.153 23.786h204.061m0 50H191.802c-40.4 0-73.153-33.035-73.153-73.786v-548.08c0-40.75 32.753-73.786 73.153-73.786H845.5c40.398 0 73.15 33.037 73.15 73.786V564.231c0 40.75-32.751 73.784-73.15 73.784H548.875c-20.007 0-39.137 8.266-52.944 22.868l-47.124 49.852c-13.803 14.604-32.937 22.868-52.944 22.868zM168.66 504.553h556.523c19.21 0 34.783-15.572 34.783-34.783v-139.13c0-19.209-15.572-34.783-34.783-34.783H168.66V504.553z"  horiz-adv-x="1024" />

    
    <glyph glyph-name="zujian-danchuang" unicode="&#58887;" d="M742.4 640H409.6c-56.32 0-102.4-46.08-102.4-102.4v-358.4c0-56.32 46.08-102.4 102.4-102.4h332.8v-25.6c0-43.52-33.28-76.8-76.8-76.8H256c-43.52 0-76.8 33.28-76.8 76.8V640c0 43.52 33.28 76.8 76.8 76.8h409.6c43.52 0 76.8-33.28 76.8-76.8zM409.6 588.8h486.4c28.16 0 51.2-23.04 51.2-51.2v-358.4c0-28.16-23.04-51.2-51.2-51.2H409.6c-28.16 0-51.2 23.04-51.2 51.2V537.6c0 28.16 23.04 51.2 51.2 51.2z"  horiz-adv-x="1024" />

    
    <glyph glyph-name="qiapian" unicode="&#58974;" d="M887.5008-36.3008a38.4 38.4 0 0 0 0 76.8 64.0512 64.0512 0 0 1 64 64V663.4496a64.0512 64.0512 0 0 1-64 64H140.8a64.0512 64.0512 0 0 1-64-64v-558.9504a64.0512 64.0512 0 0 1 64-64h547.0208a38.4 38.4 0 0 0 0-76.8H140.8a140.9536 140.9536 0 0 0-140.8 140.8V663.4496a140.9536 140.9536 0 0 0 140.8 140.8h746.7008a140.9536 140.9536 0 0 0 140.8-140.8v-558.9504a140.9536 140.9536 0 0 0-140.8-140.8zM835.0208 486.2976H193.28a38.4 38.4 0 1 0 0 76.8h641.7408a38.4 38.4 0 0 0 0-76.8zM595.9168 263.3728m-38.4 0a38.4 38.4 0 1 1 76.8 0 38.4 38.4 0 1 1-76.8 0ZM445.0304 224.9728H193.28a38.4 38.4 0 1 0 0 76.8H445.0304a38.4 38.4 0 0 0 0-76.8z"  horiz-adv-x="1028" />

    
    <glyph glyph-name="buzhou" unicode="&#58880;" d="M663.14666667 384c0 76.26666667-56.96 138.88-130.45333334 149.01333333v28.26666667c73.49333333 10.24 130.45333333 72.74666667 130.45333334 149.01333333 0 83.30666667-67.84 151.14666667-151.14666667 151.14666667S360.85333333 793.70666667 360.85333333 710.4c0-76.26666667 56.96-138.88 130.45333334-149.01333333v-28.26666667c-73.49333333-10.24-130.45333333-72.74666667-130.45333334-149.01333333s56.96-138.88 130.45333334-149.01333334v-28.26666666c-73.49333333-10.24-130.45333333-72.74666667-130.45333334-149.01333334 0-83.30666667 67.84-151.14666667 151.14666667-151.14666666S663.14666667-25.706666670000004 663.14666667 57.60000000000002c0 76.26666667-56.96 138.88-130.45333334 149.01333333v28.26666667c73.49333333 10.24 130.45333333 72.85333333 130.45333334 149.12zM465.49333333 738.88V766.93333333c18.45333333 5.44 34.45333333 13.22666667 47.89333334 23.46666667h20.8v-160H501.33333333V753.6c-4.05333333-3.52-9.6-6.61333333-16.53333333-9.49333333-6.93333333-2.77333333-13.44-4.48-19.30666667-5.22666667zM402.24 384c0 60.48 49.28 109.76 109.76 109.76S621.76 444.48 621.76 384 572.48 274.24 512 274.24 402.24 323.52 402.24 384z m219.52-326.4c0-60.48-49.28-109.76-109.76-109.76S402.24-2.8799999999999955 402.24 57.60000000000002 451.52 167.36 512 167.36 621.76 118.18666667000002 621.76 57.60000000000002zM564.05333333 331.62666666999996h-66.45333333c0 2.98666667 1.81333333 6.61333333 5.44 10.66666666 3.62666667 4.05333333 10.77333333 9.92 21.33333333 17.49333334 10.98666667 7.78666667 18.98666667 14.4 24 19.94666666 5.01333333 5.54666667 8.74666667 11.41333333 11.41333334 17.70666667 2.66666667 6.29333333 3.94666667 13.33333333 3.94666666 21.22666667 0 13.97333333-4.58666667 25.06666667-13.65333333 32.96-9.06666667 8-21.44 11.94666667-37.12 11.94666666-17.06666667 0-32.42666667-4.37333333-46.08-13.22666666v-29.12c12.26666667 10.77333333 25.17333333 16.21333333 38.61333333 16.21333333 15.36 0 23.04-7.04 23.04-21.12 0-6.50666667-2.02666667-12.69333333-6.08-18.56-4.05333333-5.86666667-11.09333333-12.58666667-21.22666666-20.05333333-11.09333333-7.78666667-19.2-14.61333333-24.42666667-20.48-5.22666667-5.86666667-9.38666667-12.16-12.37333333-18.88-2.98666667-6.72-4.48-14.18666667-4.48-22.29333334v-11.62666666h104.10666666v27.2zM468.48 130.24v-26.98666667c9.92 6.82666667 20.16 10.34666667 30.61333333 10.34666667 16.10666667 0 24.21333333-6.72 24.21333334-20.05333333 0-14.18666667-10.56-21.22666667-31.57333334-21.22666667h-12.8v-25.17333333h13.86666667c11.09333333 0 19.73333333-1.92 25.92-5.86666667 6.18666667-3.94666667 9.28-9.6 9.28-16.96 0-7.25333333-2.56-12.8-7.78666667-16.64s-12.16-5.86666667-21.01333333-5.86666667c-13.97333333 0-26.13333333 3.94666667-36.58666667 11.73333334v-28.8c9.81333333-5.33333333 22.82666667-8 38.93333334-8 18.13333333 0 32.64 4.16 43.52 12.58666666 10.88 8.32 16.32 19.94666667 16.32 34.88 0 9.70666667-3.30666667 17.92-9.81333334 24.74666667-6.50666667 6.82666667-15.25333333 10.77333333-26.13333333 11.94666667v0.53333333c20.8 5.22666667 31.14666667 18.13333333 31.14666667 38.61333333 0 12.16-4.58666667 21.65333333-13.86666667 28.48-9.28 6.82666667-21.22666667 10.24-36.05333333 10.24-14.72-0.10666667-27.41333333-2.98666667-38.18666667-8.53333333z"  horiz-adv-x="1024" />

    
    <glyph glyph-name="zu" unicode="&#58901;" d="M0 896h1024v-292.571429H0zM0 530.285714h292.571429v-292.571428H0zM0 164.57142899999997h292.571429v-292.571429H0zM365.714286 530.285714h292.571428v-292.571428H365.714286zM365.714286 164.57142899999997h292.571428v-292.571429H365.714286zM731.428571 530.285714h292.571429v-292.571428h-292.571429zM731.428571 164.57142899999997h292.571429v-292.571429h-292.571429z"  horiz-adv-x="1024" />

    
    <glyph glyph-name="fabu-" unicode="&#59069;" d="M788.024889 244.62222199999997c0 129.934222-105.358222 235.292444-235.292445 235.292445S317.44 374.55644400000006 317.44 244.62222199999997v-198.656h470.584889V226.986667h-0.682667c0.455111 5.802667 0.682667 11.719111 0.682667 17.635555zM822.158222 290.133333c0 129.934222-105.358222 235.292444-235.292444 235.292445S351.573333 420.067556 351.573333 290.133333v-198.656h470.584889V272.49777800000004h-0.682666c0.455111 5.802667 0.682667 11.719111 0.682666 17.635555zM443.050667 442.140444c4.778667 0.113778 8.647111 3.982222 8.533333 8.874667-0.113778 4.778667-4.096 8.647111-8.874667 8.533333-4.778667-0.113778-8.647111-4.096-8.533333-8.874666 0.113778-4.778667 4.096-8.647111 8.874667-8.533334zM495.843556 408.234667c-0.113778 4.778667-3.982222 8.647111-8.874667 8.533333-4.778667-0.113778-8.647111-4.096-8.533333-8.874667 0.113778-4.778667 3.982222-8.647111 8.874666-8.533333 4.778667 0.113778 8.647111 3.982222 8.533334 8.874667zM485.831111 486.286222c4.778667 0.113778 8.647111 3.982222 8.533333 8.874667-0.113778 4.096-2.958222 7.509333-6.712888 8.305778-3.299556-1.592889-6.599111-3.185778-9.898667-4.892445-0.568889-1.137778-0.796444-2.389333-0.796445-3.754666 0.113778-4.778667 4.096-8.533333 8.874667-8.533334zM408.803556 406.755556c-0.113778 4.778667-3.982222 8.647111-8.874667 8.533333-4.778667-0.113778-8.647111-4.096-8.533333-8.874667 0.113778-4.778667 3.982222-8.647111 8.874666-8.533333 4.778667 0.113778 8.647111 4.096 8.533334 8.874667zM363.633778 356.352c0.910222 1.024 1.706667 2.275556 2.048 3.640889 0 0.113778 0 0.227556 0.113778 0.341333 0.113778 0.227556 0.113778 0.455111 0.113777 0.682667 0.113778 0.455111 0.113778 1.024 0.113778 1.479111 0 1.820444-0.568889 3.413333-1.479111 4.778667-1.479111-4.323556-2.844444-8.647111-4.096-12.970667 1.251556 0.455111 2.275556 1.137778 3.185778 2.048zM625.550222 453.859556c-0.113778 4.778667-4.096 8.647111-8.874666 8.533333-4.778667-0.113778-8.647111-4.096-8.533334-8.874667 0.113778-4.778667 3.982222-8.647111 8.874667-8.533333 4.778667 0.113778 8.647111 3.982222 8.533333 8.874667zM661.276444 402.204444c4.778667 0.113778 8.647111 3.982222 8.533334 8.874667-0.113778 4.778667-3.982222 8.647111-8.874667 8.533333-4.778667-0.113778-8.647111-4.096-8.533333-8.874666 0.113778-4.778667 3.982222-8.647111 8.874666-8.533334zM668.330667 498.005333c-0.113778 4.778667-3.982222 8.647111-8.874667 8.533334-4.778667-0.113778-8.647111-4.096-8.533333-8.874667 0.113778-4.778667 3.982222-8.647111 8.874666-8.533333 4.778667 0.113778 8.647111 4.096 8.533334 8.874666zM574.236444 400.725333c4.778667 0.113778 8.647111 3.982222 8.533334 8.874667-0.113778 4.778667-3.982222 8.647111-8.874667 8.533333-4.778667-0.113778-8.647111-4.096-8.533333-8.874666 0.113778-4.778667 4.096-8.533333 8.874666-8.533334zM581.404444 496.64c-0.113778 4.778667-3.982222 8.647111-8.874666 8.533333-4.778667-0.113778-8.647111-4.096-8.533334-8.874666 0.113778-4.778667 3.982222-8.647111 8.874667-8.533334 4.778667 0 8.647111 3.982222 8.533333 8.874667zM530.090667 443.505778c4.778667 0.113778 8.647111 3.982222 8.533333 8.874666-0.113778 4.778667-3.982222 8.647111-8.874667 8.533334-4.778667-0.113778-8.647111-4.096-8.533333-8.874667 0.113778-4.778667 3.982222-8.533333 8.874667-8.533333zM756.736 412.444444c-0.113778 4.778667-3.982222 8.647111-8.874667 8.533334-4.778667-0.113778-8.647111-4.096-8.533333-8.874667 0.113778-4.778667 3.982222-8.647111 8.874667-8.533333 4.778667 0.113778 8.647111 4.096 8.533333 8.874666zM704.056889 446.350222c4.778667 0.113778 8.647111 3.982222 8.533333 8.874667-0.113778 4.778667-3.982222 8.647111-8.874666 8.533333-4.778667-0.113778-8.647111-4.096-8.533334-8.874666 0.113778-4.778667 3.982222-8.533333 8.874667-8.533334zM361.813333 92.842667c4.778667 0.113778 8.647111 3.982222 8.533334 8.874666-0.113778 4.778667-3.982222 8.647111-8.874667 8.533334-4.778667-0.113778-8.647111-4.096-8.533333-8.874667 0.113778-4.892444 4.096-8.647111 8.874666-8.533333zM535.779556 95.68711099999996c4.778667 0.113778 8.647111 3.982222 8.533333 8.874667-0.113778 4.778667-3.982222 8.647111-8.874667 8.533333-4.778667-0.113778-8.647111-4.096-8.533333-8.874667 0.113778-4.892444 4.096-8.647111 8.874667-8.533333zM448.739556 94.20799999999997c4.778667 0.113778 8.647111 3.982222 8.533333 8.874667-0.113778 4.778667-4.096 8.647111-8.874667 8.533333-4.778667-0.113778-8.647111-4.096-8.533333-8.874667 0.113778-4.778667 4.096-8.647111 8.874667-8.533333zM491.52 138.46755599999995c4.778667 0.113778 8.647111 3.982222 8.533333 8.874666-0.113778 4.778667-3.982222 8.647111-8.874666 8.533334-4.778667-0.113778-8.647111-4.096-8.533334-8.874667 0.113778-4.892444 4.096-8.647111 8.874667-8.533333zM404.593778 136.98844399999996c4.778667 0.113778 8.647111 3.982222 8.533333 8.874667-0.113778 4.778667-3.982222 8.647111-8.874667 8.533333-4.778667-0.113778-8.647111-4.096-8.533333-8.874666 0.113778-4.778667 4.096-8.647111 8.874667-8.533334zM445.895111 268.174222c4.778667 0.113778 8.647111 3.982222 8.533333 8.874667-0.113778 4.778667-4.096 8.647111-8.874666 8.533333-4.778667-0.113778-8.647111-4.096-8.533334-8.874666 0.113778-4.778667 4.096-8.647111 8.874667-8.533334zM490.154667 225.393778c4.778667 0.113778 8.647111 3.982222 8.533333 8.874666-0.113778 4.778667-3.982222 8.647111-8.874667 8.533334-4.778667-0.113778-8.647111-4.096-8.533333-8.874667 0.113778-4.778667 3.982222-8.647111 8.874667-8.533333zM488.675556 312.32000000000005c4.778667 0.113778 8.647111 3.982222 8.533333 8.874667-0.113778 4.778667-3.982222 8.647111-8.874667 8.533333-4.778667-0.113778-8.647111-4.096-8.533333-8.874667 0.113778-4.778667 4.096-8.533333 8.874667-8.533333zM403.114667 223.914667c4.778667 0.113778 8.647111 3.982222 8.533333 8.874666-0.113778 4.778667-3.982222 8.647111-8.874667 8.533334-4.778667-0.113778-8.647111-4.096-8.533333-8.874667 0.113778-4.778667 4.096-8.533333 8.874667-8.533333zM401.749333 310.954667c4.778667 0.113778 8.647111 3.982222 8.533334 8.874666-0.113778 4.778667-3.982222 8.647111-8.874667 8.533334-4.778667-0.113778-8.647111-4.096-8.533333-8.874667 0.113778-4.778667 3.982222-8.647111 8.874666-8.533333zM443.960889 181.81688899999995c1.024-0.455111 2.161778-0.682667 3.413333-0.682667s2.389333 0.227556 3.413334 0.682667c3.072 1.365333 5.233778 4.551111 5.233777 8.078222 0 1.251556-0.227556 2.389333-0.796444 3.413333-0.910222 2.048-2.616889 3.754667-4.664889 4.551112-1.024 0.455111-2.161778 0.682667-3.413333 0.682666s-2.389333-0.227556-3.413334-0.682666c-2.048-0.910222-3.754667-2.616889-4.551111-4.664889-0.455111-1.024-0.682667-2.161778-0.682666-3.413334 0.113778-3.640889 2.275556-6.712889 5.461333-7.964444zM358.968889 266.695111c4.778667 0.113778 8.647111 3.982222 8.533333 8.874667-0.113778 4.778667-3.982222 8.647111-8.874666 8.533333-2.958222 0-5.575111-1.592889-7.054223-3.868444v-9.671111c1.592889-2.275556 4.323556-3.868444 7.395556-3.868445zM356.920889 180.33777799999996c1.024-0.455111 2.161778-0.682667 3.413333-0.682667s2.389333 0.227556 3.413334 0.682667c3.072 1.365333 5.233778 4.551111 5.233777 8.078222 0 1.251556-0.227556 2.389333-0.682666 3.413333-0.910222 2.048-2.616889 3.754667-4.664889 4.551111-1.024 0.455111-2.161778 0.682667-3.413334 0.682667s-2.389333-0.227556-3.413333-0.682667c-2.048-0.910222-3.754667-2.616889-4.551111-4.664888-0.341333-0.796444-0.568889-1.592889-0.568889-2.503112v-1.365333c0.113778-3.413333 2.275556-6.257778 5.233778-7.509333zM440.888889 355.896889c0.113778 0 0.227556-0.113778 0.227555-0.113778 1.024-0.455111 2.161778-0.682667 3.413334-0.682667 2.275556 0 4.437333 1.024 5.916444 2.503112 0.113778 0.113778 0.227556 0.227556 0.341334 0.455111 1.479111 1.592889 2.275556 3.640889 2.275555 5.916444 0 2.048-0.796444 3.982222-2.048 5.461333-0.227556 0.227556-0.341333 0.455111-0.568889 0.568889-1.592889 1.592889-3.754667 2.503111-6.144 2.389334-1.820444 0-3.413333-0.568889-4.892444-1.592889-0.455111-0.341333-0.910222-0.682667-1.251556-1.137778-0.796444-0.796444-1.365333-1.706667-1.820444-2.844444-0.455111-1.024-0.682667-2.161778-0.682667-3.413334 0-0.455111 0-0.796444 0.113778-1.137778 0.455111-2.844444 2.161778-5.12 4.551111-6.371555 0.227556 0.113778 0.341333 0.113778 0.568889 0zM709.745778 98.53155600000002c4.778667 0.113778 8.647111 3.982222 8.533333 8.874666-0.113778 4.778667-3.982222 8.647111-8.874667 8.533334-4.778667-0.113778-8.647111-4.096-8.533333-8.874667 0.113778-4.778667 3.982222-8.647111 8.874667-8.533333zM622.705778 97.05244400000004c4.778667 0.113778 8.647111 3.982222 8.533333 8.874667-0.113778 4.778667-4.096 8.647111-8.874667 8.533333-4.778667-0.113778-8.647111-4.096-8.533333-8.874666 0.113778-4.778667 4.096-8.647111 8.874667-8.533334zM665.486222 141.312c4.778667 0.113778 8.647111 3.982222 8.533334 8.874667-0.113778 4.778667-3.982222 8.647111-8.874667 8.533333-4.778667-0.113778-8.647111-4.096-8.533333-8.874667 0.113778-4.778667 4.096-8.647111 8.874666-8.533333zM569.685333 148.366222c0.113778-4.778667 3.982222-8.647111 8.874667-8.533333 4.778667 0.113778 8.647111 3.982222 8.533333 8.874667-0.113778 4.778667-3.982222 8.647111-8.874666 8.533333-4.778667-0.113778-8.647111-4.096-8.533334-8.874667zM619.861333 271.01866700000005c4.778667 0.113778 8.647111 3.982222 8.533334 8.874666-0.113778 4.778667-4.096 8.647111-8.874667 8.533334-4.778667-0.113778-8.647111-4.096-8.533333-8.874667 0.113778-4.778667 4.096-8.647111 8.874666-8.533333zM664.120889 228.23822199999995c4.778667 0.113778 8.647111 3.982222 8.533333 8.874667-0.113778 4.778667-3.982222 8.647111-8.874666 8.533333-4.778667-0.113778-8.647111-4.096-8.533334-8.874666 0.113778-4.778667 3.982222-8.647111 8.874667-8.533334zM662.641778 315.164444c4.778667 0.113778 8.647111 3.982222 8.533333 8.874667-0.113778 4.778667-3.982222 8.647111-8.874667 8.533333-4.778667-0.113778-8.647111-4.096-8.533333-8.874666 0.113778-4.778667 4.096-8.533333 8.874667-8.533334zM576.853333 244.16711099999998c-4.778667-0.113778-8.647111-4.096-8.533333-8.874667 0.113778-4.778667 3.982222-8.647111 8.874667-8.533333 4.778667 0.113778 8.647111 3.982222 8.533333 8.874667-0.113778 4.778667-4.096 8.647111-8.874667 8.533333zM575.715556 313.79911100000004c4.778667 0.113778 8.647111 3.982222 8.533333 8.874667-0.113778 4.778667-3.982222 8.647111-8.874667 8.533333-4.778667-0.113778-8.647111-4.096-8.533333-8.874667 0.113778-4.778667 3.982222-8.647111 8.874667-8.533333zM617.927111 184.661333c1.024-0.455111 2.161778-0.682667 3.413333-0.682666s2.389333 0.227556 3.413334 0.682666c3.072 1.365333 5.233778 4.551111 5.233778 8.078223 0 1.251556-0.227556 2.389333-0.796445 3.413333-0.910222 2.048-2.616889 3.754667-4.664889 4.551111-1.024 0.455111-2.161778 0.682667-3.413333 0.682667s-2.389333-0.227556-3.413333-0.682667c-2.048-0.910222-3.754667-2.616889-4.551112-4.664889-0.455111-1.024-0.682667-2.161778-0.682666-3.413333 0.113778-3.640889 2.275556-6.712889 5.461333-7.964445zM532.935111 269.53955599999995c4.778667 0.113778 8.647111 3.982222 8.533333 8.874666-0.113778 4.778667-3.982222 8.647111-8.874666 8.533334-4.778667-0.113778-8.647111-4.096-8.533334-8.874667 0.113778-4.778667 3.982222-8.533333 8.874667-8.533333zM530.887111 183.29600000000005c1.024-0.455111 2.161778-0.682667 3.413333-0.682667s2.389333 0.227556 3.413334 0.682667c3.072 1.365333 5.233778 4.551111 5.233778 8.078222 0 1.251556-0.227556 2.389333-0.682667 3.413334-0.910222 2.048-2.616889 3.754667-4.664889 4.551111-1.024 0.455111-2.161778 0.682667-3.413333 0.682666s-2.389333-0.227556-3.413334-0.682666c-2.048-0.910222-3.754667-2.616889-4.551111-4.664889-0.455111-1.024-0.682667-2.161778-0.682666-3.413334 0-3.640889 2.275556-6.712889 5.347555-7.964444zM613.831111 359.31022199999995c1.365333-0.796444 2.958222-1.251556 4.664889-1.251555 0.341333 0 0.568889 0 0.910222 0.113777 1.934222 0.227556 3.754667 1.137778 5.006222 2.389334 1.365333 1.365333 2.389333 3.185778 2.616889 5.347555 0 0.341333 0.113778 0.682667 0 1.024 0 1.479111-0.455111 2.958222-1.137777 4.096-0.113778 0.227556-0.341333 0.455111-0.455112 0.682667-0.455111 0.682667-1.024 1.251556-1.706666 1.820444-1.479111 1.251556-3.413333 1.934222-5.575111 1.934223-1.251556 0-2.389333-0.227556-3.413334-0.682667-1.251556-0.568889-2.389333-1.479111-3.299555-2.503111-0.227556-0.227556-0.341333-0.455111-0.455111-0.682667-0.910222-1.365333-1.479111-3.072-1.365334-4.892444 0-0.455111 0-0.796444 0.113778-1.137778 0.341333-2.844444 1.934222-5.006222 4.096-6.257778zM527.36 357.603556c1.251556-0.682667 2.616889-1.024 4.209778-1.024 2.048 0 3.982222 0.796444 5.461333 2.048 0.227556 0.227556 0.455111 0.341333 0.682667 0.568888 0.568889 0.568889 1.024 1.137778 1.365333 1.820445l0.341333 0.682667c0.113778 0.113778 0.113778 0.227556 0.113778 0.341333 0.113778 0.341333 0.227556 0.796444 0.341334 1.137778 0 0.227556 0.113778 0.455111 0.113777 0.568889 0.113778 0.455111 0.113778 1.024 0.113778 1.479111 0 1.251556-0.227556 2.389333-0.682667 3.413333-1.365333 3.072-4.551111 5.233778-8.078222 5.233778-0.910222 0-1.820444-0.113778-2.616889-0.455111-0.568889-0.227556-1.024-0.455111-1.592889-0.682667-0.227556-0.113778-0.455111-0.341333-0.682666-0.455111-2.275556-1.592889-3.754667-4.323556-3.754667-7.281778 0-0.455111 0-0.796444 0.113778-1.137778 0.341333-2.730667 2.048-5.006222 4.551111-6.257777zM796.672 99.89688899999999c4.778667 0.113778 8.647111 3.982222 8.533333 8.874667-0.113778 4.778667-4.096 8.647111-8.874666 8.533333-4.778667-0.113778-8.647111-4.096-8.533334-8.874667 0.113778-4.778667 4.096-8.533333 8.874667-8.533333zM752.526222 142.67733299999998c4.778667 0.113778 8.647111 3.982222 8.533334 8.874667-0.113778 4.778667-3.982222 8.647111-8.874667 8.533333-4.778667-0.113778-8.647111-4.096-8.533333-8.874666 0.113778-4.778667 3.982222-8.647111 8.874666-8.533334zM793.827556 273.863111c4.778667 0.113778 8.647111 3.982222 8.533333 8.874667-0.113778 4.778667-4.096 8.647111-8.874667 8.533333-4.778667-0.113778-8.647111-4.096-8.533333-8.874667 0.113778-4.778667 4.096-8.647111 8.874667-8.533333zM751.047111 229.71733300000005c4.778667 0.113778 8.647111 3.982222 8.533333 8.874667-0.113778 4.778667-3.982222 8.647111-8.874666 8.533333-4.778667-0.113778-8.647111-4.096-8.533334-8.874666 0.113778-4.892444 4.096-8.647111 8.874667-8.533334zM749.681778 316.643556c4.778667 0.113778 8.647111 3.982222 8.533333 8.874666-0.113778 4.778667-3.982222 8.647111-8.874667 8.533334-4.778667-0.113778-8.647111-4.096-8.533333-8.874667 0.113778-4.778667 3.982222-8.647111 8.874667-8.533333zM791.893333 187.50577799999996c1.024-0.455111 2.161778-0.682667 3.413334-0.682667s2.389333 0.227556 3.413333 0.682667c3.072 1.365333 5.233778 4.551111 5.233778 8.078222 0 1.251556-0.227556 2.389333-0.796445 3.413333-0.910222 2.048-2.616889 3.754667-4.664889 4.551111-1.024 0.455111-2.161778 0.682667-3.413333 0.682667s-2.389333-0.227556-3.413333-0.682667c-2.048-0.910222-3.754667-2.616889-4.551111-4.664888-0.455111-1.024-0.682667-2.161778-0.682667-3.413334 0-3.640889 2.275556-6.712889 5.461333-7.964444zM706.901333 272.49777800000004c4.778667 0.113778 8.647111 3.982222 8.533334 8.874666-0.113778 4.778667-3.982222 8.647111-8.874667 8.533334-4.778667-0.113778-8.647111-4.096-8.533333-8.874667 0.113778-4.892444 3.982222-8.647111 8.874666-8.533333zM704.853333 186.140444c1.024-0.455111 2.161778-0.682667 3.413334-0.682666s2.389333 0.227556 3.413333 0.682666c3.072 1.365333 5.233778 4.551111 5.233778 8.078223 0 1.251556-0.227556 2.389333-0.682667 3.413333-0.910222 2.048-2.616889 3.754667-4.664889 4.551111-1.024 0.455111-2.161778 0.682667-3.413333 0.682667s-2.389333-0.227556-3.413333-0.682667c-2.048-0.910222-3.754667-2.616889-4.551112-4.664889-0.455111-1.024-0.682667-2.161778-0.682666-3.413333 0-3.640889 2.275556-6.712889 5.347555-7.964445zM797.582222 362.609778c1.820444 1.365333 3.072 3.527111 3.299556 6.030222 0 0.341333 0.113778 0.682667 0 1.024 0 1.479111-0.455111 2.958222-1.137778 4.096-0.113778 0.227556-0.341333 0.455111-0.455111 0.682667-0.455111 0.682667-1.024 1.251556-1.706667 1.820444-1.479111 1.251556-3.413333 1.934222-5.575111 1.934222-0.910222 0-1.820444-0.113778-2.616889-0.455111-0.568889-0.227556-1.024-0.455111-1.592889-0.682666-0.227556-0.113778-0.455111-0.341333-0.682666-0.455112-2.275556-1.592889-3.754667-4.323556-3.754667-7.281777 0-0.796444 0.113778-1.592889 0.341333-2.389334v-0.227555c0.455111-1.365333 1.251556-2.616889 2.161778-3.527111 1.592889-1.592889 3.754667-2.503111 6.144-2.503111 2.389333 0.227556 4.096 0.910222 5.575111 1.934222zM697.002667 365.34044400000005c0.682667-1.934222 1.934222-3.527111 3.527111-4.551111 1.365333-0.910222 3.072-1.479111 4.892444-1.365333 2.048 0 3.982222 0.796444 5.461334 2.048 1.934222 1.592889 3.072 4.096 3.072 6.712889 0 2.958222-1.592889 5.575111-3.982223 7.168-0.455111 0.341333-0.910222 0.568889-1.479111 0.796444-0.568889 0.227556-1.024 0.341333-1.592889 0.455111-0.568889 0.113778-1.137778 0.113778-1.706666 0.113778-0.910222 0-1.820444-0.113778-2.616889-0.455111-0.568889-0.227556-1.024-0.455111-1.592889-0.682667-0.227556-0.113778-0.455111-0.341333-0.682667-0.455111-2.275556-1.592889-3.754667-4.323556-3.754666-7.281777 0-0.796444 0.113778-1.592889 0.341333-2.389334 0.113778 0.113778 0.113778 0 0.113778-0.113778zM788.024889 114.232889H317.44c-18.887111 0-34.133333 15.246222-34.133333 34.133333V347.02222200000006c0 72.021333 27.989333 139.605333 78.961777 190.464 50.858667 50.858667 118.556444 78.961778 190.464 78.961778s139.605333-27.989333 190.464-78.961778c50.858667-50.858667 78.961778-118.556444 78.961778-190.464 0-4.323556-0.113778-8.647111-0.341333-12.970666 0.227556-1.479111 0.341333-3.072 0.341333-4.664889v-181.134223c0-18.773333-15.246222-34.019556-34.133333-34.019555z m-436.451556 68.266667h402.318223V322.787556c-0.568889 2.958222-0.796444 6.030222-0.568889 9.102222 0.341333 5.006222 0.568889 10.126222 0.568889 15.018666 0 110.933333-90.225778 201.159111-201.159112 201.159112S351.573333 457.955556 351.573333 347.02222200000006v-164.522666zM423.594667 245.87377800000002c-16.042667 0-30.378667 11.377778-33.450667 27.648-1.024 5.006222-22.755556 124.017778 60.074667 193.080889 14.449778 12.060444 35.953778 10.126222 48.128-4.323556 12.060444-14.449778 10.126222-35.953778-4.323556-48.128-51.313778-42.780444-36.864-126.862222-36.636444-127.658667 3.527111-18.545778-8.533333-36.408889-27.079111-39.936-2.389333-0.455111-4.664889-0.682667-6.712889-0.682666zM267.264 498.119111c-6.144 0-12.515556 1.706667-18.090667 5.233778l-53.475555 33.564444c-15.928889 10.012444-20.821333 31.061333-10.808889 47.104 10.012444 15.928889 31.061333 20.821333 47.104 10.808889l53.475555-33.564444c15.928889-10.012444 20.821333-31.061333 10.808889-47.104-6.599111-10.353778-17.635556-16.042667-29.013333-16.042667zM369.095111 626.346667c-13.312 0-25.827556 7.736889-31.402667 20.707555l-24.803555 58.026667c-7.395556 17.294222 0.682667 37.432889 17.976889 44.828444 17.294222 7.395556 37.432889-0.682667 44.828444-17.976889l24.803556-58.026666c7.395556-17.294222-0.682667-37.432889-17.976889-44.828445-4.437333-1.820444-8.988444-2.730667-13.425778-2.730666zM536.803556 652.5155560000001h-1.820445c-18.773333 1.024-33.336889 17.066667-32.312889 35.84l3.299556 63.032888c1.024 18.773333 16.952889 33.336889 35.84 32.312889 18.773333-1.024 33.336889-17.066667 32.312889-35.84l-3.299556-63.032889c-0.910222-18.204444-15.928889-32.312889-34.019555-32.312888zM854.471111 11.832889000000023H269.653333c-18.887111 0-34.133333 15.246222-34.133333 34.133333s15.246222 34.133333 34.133333 34.133334h584.817778c18.887111 0 34.133333-15.246222 34.133333-34.133334s-15.246222-34.133333-34.133333-34.133333z"  horiz-adv-x="1024" />

    
    <glyph glyph-name="biaoqian" unicode="&#58888;" d="M814.833713-128a35.323663 35.323663 0 0 0-17.275076 4.512147L549.519482 15.486268a66.006262 66.006262 0 0 1-65.36167 0L254.296163-113.432212a64.45924 64.45924 0 0 0-65.361669 0A64.45924 64.45924 0 0 0 156.318119-56.321325v816.053976A136.395752 136.395752 0 0 0 292.584952 895.999484h438.322831a136.395752 136.395752 0 0 0 136.782507-136.266833v-650.780485a35.323663 35.323663 0 0 0-70.647327 0V759.732651a65.748425 65.748425 0 0 1-65.619506 65.619506h-438.322831a65.748425 65.748425 0 0 1-65.619507-65.619506V-47.683787l221.868704 125.437681a136.653588 136.653588 0 0 0 135.364404-0.644593L832.108789-61.86482a35.323663 35.323663 0 0 0-17.275076-66.13518zM666.190706 602.323188H353.176637a35.323663 35.323663 0 1 0 0 70.647326h313.014069a35.323663 35.323663 0 1 0 0-70.647326zM551.711096 422.095153h-198.534459a35.323663 35.323663 0 0 0 0 70.647327h198.534459a35.323663 35.323663 0 0 0 0-70.647327z"  horiz-adv-x="1024" />

    
    <glyph glyph-name="4piliangchulishuzumoban" unicode="&#58991;" d="M92 700m4 0l832 0q4 0 4-4l0-144q0-4-4-4l-832 0q-4 0-4 4l0 144q0 4 4 4ZM920 688v-128H104V688h816m8 24H96a16 16 0 0 1-16-16v-144a16 16 0 0 1 16-16h832a16 16 0 0 1 16 16V696a16 16 0 0 1-16 16zM92 548m4 0l832 0q4 0 4-4l0-144q0-4-4-4l-832 0q-4 0-4 4l0 144q0 4 4 4ZM920 536v-128H104V536h816m8 24H96a16 16 0 0 1-16-16v-144a16 16 0 0 1 16-16h832a16 16 0 0 1 16 16V544a16 16 0 0 1-16 16zM92 396m4 0l832 0q4 0 4-4l0-144q0-4-4-4l-832 0q-4 0-4 4l0 144q0 4 4 4ZM920 384v-128H104V384h816m8 24H96a16 16 0 0 1-16-16v-144a16 16 0 0 1 16-16h832a16 16 0 0 1 16 16V392a16 16 0 0 1-16 16zM92 244m4 0l832 0q4 0 4-4l0-144q0-4-4-4l-832 0q-4 0-4 4l0 144q0 4 4 4ZM920 232v-128H104V232h816m8 24H96a16 16 0 0 1-16-16v-144a16 16 0 0 1 16-16h832a16 16 0 0 1 16 16V240a16 16 0 0 1-16 16zM176 636h504v-24H176zM760 636h72v-24h-72zM176 484h504v-24H176zM760 484h72v-24h-72zM176 332h504v-24H176zM760 332h72v-24h-72zM176 180h504v-24H176zM760 180h72v-24h-72z"  horiz-adv-x="1024" />

    
    <glyph glyph-name="biaodan" unicode="&#58907;" d="M643.04 800L799.52 641.92V0a32 32 0 0 0-32-32H255.52a32 32 0 0 0-32 32V768a32 32 0 0 0 32 32h387.52m39.68 96H255.52a128 128 0 0 1-128-128v-768a128 128 0 0 1 128-128h512a128 128 0 0 1 128 128V681.28L682.72 896zM515.36 564.8H335.84A48 48 0 0 1 287.52 516.8a48 48 0 0 1 48-48h179.52a48 48 0 0 1 48 48 48 48 0 0 1-48 48zM687.84 395.84h-352A48 48 0 0 1 287.52 347.84a48 48 0 0 1 48-48h352a48 48 0 0 1 48 48 48 48 0 0 1-48 48zM561.76 226.56H335.84A48 48 0 0 1 287.52 178.56a48 48 0 0 1 48-48h225.92a48 48 0 0 1 48 48 48 48 0 0 1-48 48zM880.8 583.04h-216.32a118.4 118.4 0 0 0-118.4 118.4V896h96v-194.56a22.72 22.72 0 0 1 22.4-22.4h216.32z"  horiz-adv-x="1024" />

    
    <glyph glyph-name="acsrongqifuwu" unicode="&#59105;" d="M807.936 105.984l-22.016 32.768 66.048 38.4V571.904l-197.632 115.2 18.944 32.768L890.368 593.92v-438.784l-82.432-49.152zM166.4 333.824H128V591.36l389.12 219.136 87.552-49.152-19.456-35.84-68.608 40.96-350.208-197.12v-235.52z m342.528-397.824L128 152.576v107.008h38.4v-84.992l342.528-194.56 222.208 125.952 19.456-32.768-241.664-137.216z m-24.576 619.52L399.36 605.184v30.208L512 701.44l109.568-66.048v-30.208l-82.432-49.152-2.56-30.208-24.576 16.384-27.648-16.384v29.696z m173.056-197.12V456.704l-84.992 49.152v30.208L681.984 599.04l112.64-62.976v-129.024l-112.64-62.976-24.576 14.336zM399.36 111.616v125.952l24.576 16.384 84.992-49.152 87.552 49.152 24.576-13.824v-129.024l-112.64-66.048-109.056 66.56z m258.048 49.152v98.816l-27.648 16.384 27.648 13.824v30.208l24.576-16.384 84.992 49.152 27.648-13.824V209.92l-112.64-62.976-24.576 13.824zM399.36 308.736V437.76l112.64 62.976 109.568-62.976v-129.024l-112.64-62.976L399.36 308.736z m-175.616-98.304l2.56 129.024L250.88 353.28l84.992-49.152 27.648 16.384v-30.208l27.648-16.384-27.648-13.824v-98.816l-27.648-13.824-112.128 62.976z m0 197.12l2.56 129.024 112.64 62.976 109.568-62.976v-30.208L363.52 457.216v-95.744l-27.648-16.384-112.128 62.464z"  horiz-adv-x="1024" />

    
    <glyph glyph-name="qianjin" unicode="&#58964;" d="M532.48 518.826667V668.444444a11.377778 11.377778 0 0 0 19.342222 7.964445l312.888889-284.444445a11.377778 11.377778 0 0 0 0-17.066666l-312.888889-284.444445a11.377778 11.377778 0 0 0-19.342222 7.964445v139.946666a498.346667 498.346667 0 0 1-373.76-107.52 11.377778 11.377778 0 0 0-18.204444 11.377778c21.617778 95.573333 108.657778 376.604444 391.964444 376.604445z"  horiz-adv-x="1024" />

    
    <glyph glyph-name="houtui" unicode="&#58965;" d="M476.16 518.826667V668.444444A11.377778 11.377778 0 0 1 455.111111 679.253333l-312.888889-284.444444a11.377778 11.377778 0 0 1 0-17.066667l312.888889-284.444444a11.377778 11.377778 0 0 1 19.342222 7.964444v137.102222a498.346667 498.346667 0 0 0 373.76-107.52 11.377778 11.377778 0 0 1 18.204445 11.377778c-19.911111 95.573333-106.951111 376.604444-390.257778 376.604445z"  horiz-adv-x="1024" />

    
    <glyph glyph-name="bangzhu" unicode="&#58921;" d="M668.3 454.4c-7.7-14.3-16.9-26.6-27.5-37-10.6-10.4-29.6-27.8-57.1-52.3-7.6-6.9-13.7-13-18.2-18.2-4.6-5.2-8-10-10.2-14.4-2.2-4.3-4-8.7-5.2-13-1.2-4.3-3.1-12-5.5-22.9-4.2-23.2-17.5-34.8-39.8-34.8-11.6 0-21.4 3.8-29.3 11.4-7.9 7.6-11.9 18.8-11.9 33.8 0 18.7 2.9 34.9 8.7 48.7 5.8 13.7 13.5 25.7 23.1 36.1 9.6 10.4 22.5 22.7 38.8 36.9 14.3 12.5 24.6 21.9 31 28.3 6.4 6.4 11.7 13.4 16.1 21.2 4.3 7.8 6.5 16.2 6.5 25.4 0 17.8-6.6 32.9-19.9 45.1-13.3 12.2-30.4 18.4-51.4 18.4-24.6 0-42.6-6.2-54.2-18.6-11.6-12.4-21.4-30.6-29.5-54.7-7.6-25.2-22-37.8-43.2-37.8-12.5 0-23 4.4-31.6 13.2-8.6 8.8-12.9 18.3-12.9 28.6 0 21.2 6.8 42.6 20.4 64.4 13.6 21.7 33.5 39.7 59.6 54 26.1 14.3 56.6 21.4 91.4 21.4 32.4 0 60.9-6 85.7-17.9 24.8-11.9 43.9-28.1 57.4-48.7 13.5-20.5 20.3-42.8 20.3-66.9 0-18.8-3.8-35.4-11.6-49.7z m-125-309.7c-10.1-8.9-21.7-13.4-34.8-13.4-13.6 0-25.5 4.4-35.7 13.2-10.2 8.8-15.2 21.1-15.2 36.9 0 14 4.9 25.9 14.7 35.5 9.8 9.6 21.9 14.4 36.2 14.4 14.1 0 25.9-4.8 35.5-14.4 9.6-9.6 14.4-21.4 14.4-35.5 0-15.5-5.1-27.8-15.1-36.7zM512.5 883.9c-276.1 0-500-223.6-500-499.4 0-275.8 223.9-499.4 500-499.4s500 223.6 500 499.4c0 275.8-223.9 499.4-500 499.4z"  horiz-adv-x="1024" />

    
    <glyph glyph-name="data" unicode="&#58897;" d="M512 896C296.192 896 64 830.944 64 688v-608C64-62.879999999999995 296.192-128 512-128c215.776 0 448 65.12 448 208v608C960 830.944 727.744 896 512 896z m384-816c0-79.488-171.936-144-384-144-212.096 0-384 64.512-384 144v119.552C194.112 131.42399999999998 353.6 96 512 96s317.888 35.424 384 103.552V80z m0 192h-0.128c0-0.32 0.128-0.672 0.128-0.992C896 192 724.064 128 512 128S128 192 128 271.00800000000004c0 0.32 0.128 0.672 0.128 0.992H128v119.552C194.112 323.424 353.6 288 512 288s317.888 35.424 384 103.552V272z m0 192h-0.128c0-0.32 0.128-0.672 0.128-0.992C896 384 724.064 320 512 320S128 384 128 463.008c0 0.32 0.128 0.672 0.128 0.992H128v109.952C211.872 510.048 365.6 480 512 480s300.128 30.048 384 93.952V464zM512 544C299.904 544 128 608.512 128 688 128 767.552 299.904 832 512 832c212.064 0 384-64.448 384-144 0-79.488-171.936-144-384-144zM800 64m-32 0a32 32 0 1 1 64 0 32 32 0 1 1-64 0ZM800 256m-32 0a32 32 0 1 1 64 0 32 32 0 1 1-64 0ZM800 448m-32 0a32 32 0 1 1 64 0 32 32 0 1 1-64 0Z"  horiz-adv-x="1024" />

    
    <glyph glyph-name="shiyongxuzhi" unicode="&#58886;" d="M230.4 160l550.4 0 0-51.2L230.4 108.8 230.4 160 230.4 160zM230.4 160M230.4 300.8l550.4 0 0-51.2L230.4 249.6 230.4 300.8 230.4 300.8zM230.4 300.8M230.4 448l550.4 0 0-51.2L230.4 396.8 230.4 448 230.4 448zM230.4 448M230.4 595.2l262.4 0 0-51.2L230.4 544 230.4 595.2 230.4 595.2zM230.4 595.2M646.4 896 595.2 896 57.6 896l0-1024 908.8 0L966.4 550.4 966.4 569.6 966.4 588.8 646.4 896 646.4 896zM646.4 825.6 896 588.8l-249.6 0L646.4 825.6 646.4 825.6zM915.2-83.2 108.8-83.2 108.8 851.2l492.8 0 0-262.4 0-44.8 51.2 0 268.8 0 0-627.2L915.2-83.2zM915.2-83.2"  horiz-adv-x="1024" />

    
    <glyph glyph-name="changjing" unicode="&#59046;" d="M469.333333 0a42.666667 42.666667 0 0 0 0-85.333333H128a85.333333 85.333333 0 0 0-85.333333 85.333333V768a85.333333 85.333333 0 0 0 85.333333 85.333333h768a85.333333 85.333333 0 0 0 85.333333-85.333333v-298.666667a42.666667 42.666667 0 0 0-85.333333 0V725.333333a42.666667 42.666667 0 0 1-42.666667 42.666667H170.666667a42.666667 42.666667 0 0 1-42.666667-42.666667v-682.666666a42.666667 42.666667 0 0 1 42.666667-42.666667h298.666666zM213.333333 704h234.666667a21.333333 21.333333 0 0 0 21.333333-21.333333v-234.666667a21.333333 21.333333 0 0 0-21.333333-21.333333H213.333333a21.333333 21.333333 0 0 0-21.333333 21.333333V682.666667a21.333333 21.333333 0 0 0 21.333333 21.333333z m362.666667 0H810.666667a21.333333 21.333333 0 0 0 21.333333-21.333333v-234.666667a21.333333 21.333333 0 0 0-21.333333-21.333333h-234.666667a21.333333 21.333333 0 0 0-21.333333 21.333333V682.666667a21.333333 21.333333 0 0 0 21.333333 21.333333zM213.333333 341.333333h234.666667a21.333333 21.333333 0 0 0 21.333333-21.333333V85.333333a21.333333 21.333333 0 0 0-21.333333-21.333333H213.333333a21.333333 21.333333 0 0 0-21.333333 21.333333v234.666667A21.333333 21.333333 0 0 0 213.333333 341.333333z m426.666667 0h298.666667a42.666667 42.666667 0 0 0 0-85.333333h-298.666667a42.666667 42.666667 0 0 0 0 85.333333z m0-170.666666h298.666667a42.666667 42.666667 0 0 0 0-85.333334h-298.666667a42.666667 42.666667 0 0 0 0 85.333334z m0-170.666667h298.666667a42.666667 42.666667 0 0 0 0-85.333333h-298.666667a42.666667 42.666667 0 0 0 0 85.333333z"  horiz-adv-x="1024" />

    
    <glyph glyph-name="baocun" unicode="&#58881;" d="M800.396851 823.548898h-576.745607c-85.621053 0-155.277506-69.656453-155.277505-155.277506v-576.744583c0-85.621053 69.656453-155.277506 155.277505-155.277506h576.744584c85.61082 0 155.277506 69.656453 155.277505 155.277506v576.745606c0.001023 85.621053-69.665663 155.276483-155.276482 155.276483zM667.301554 734.819041c12.239765 0 22.182208-9.953699 22.182208-22.182209v-155.277506c0-12.228509-9.943466-22.182208-22.182208-22.182208H356.746542c-12.239765 0-22.182208 9.953699-22.182209 22.182208V712.636832c0 12.228509 9.943466 22.182208 22.182209 22.182209H667.301554z m199.642946-643.292232c0-36.696784-29.850865-66.547649-66.547649-66.547649h-576.745607c-36.696784 0-66.547649 29.850865-66.547648 66.547649v576.745606c0 36.696784 29.850865 66.547649 66.547648 66.547649h24.413016a110.983697 110.983697 0 0 1-2.230807-22.182208v-155.277506c0-61.153802 49.759287-110.912066 110.912066-110.912066H667.301554c61.153802 0 110.912066 49.759287 110.912065 110.912066v155.276482c0 7.594979-0.769526 15.012925-2.230807 22.182209h24.413016c36.696784 0 66.547649-29.850865 66.547648-66.547649v-576.744583zM578.570673 579.542558h44.36544c12.251022 0 22.182208 9.931187 22.182209 22.182209v66.547648c0 12.251022-9.931187 22.182208-22.182209 22.182209H578.570673c-12.251022 0-22.182208-9.931187-22.182208-22.182209v-66.547648c0-12.249999 9.931187-22.182208 22.182208-22.182209z"  horiz-adv-x="1024" />

    
    <glyph glyph-name="iconfront-" unicode="&#58896;" d="M844.5-22.6H184.6c-42.9 0-77.9 34.9-77.9 77.9V715.1c0 42.9 34.9 77.9 77.9 77.9h659.9c42.9 0 77.9-34.9 77.9-77.9v-659.9c-0.1-42.9-35-77.8-77.9-77.8zM184.6 765c-27.5 0-49.9-22.4-49.9-49.9v-659.9c0-27.5 22.4-49.9 49.9-49.9h659.9c27.5 0 49.9 22.4 49.9 49.9V715.1c0 27.5-22.4 49.9-49.9 49.9H184.6zM833.5 686.4c0 9.9-8 18-17.9 18.1l-179.2 0.7c-9.9 0-18-8-18.1-17.9 0-9.9 8-18 17.9-18.1l179.2-0.7c9.9-0.1 18 8 18.1 17.9zM815.5 704.3c-9.9 0-18-8-18.1-17.9l-0.7-179.2c0-9.9 8-18 17.9-18.1 9.9 0 18 8 18.1 17.9l0.7 179.2c0.1 9.9-8 18-17.9 18.1zM194 84.1c0-9.9 8-18 17.9-18.1l179.2-0.7c9.9 0 18 8 18.1 17.9 0 9.9-8 18-17.9 18.1l-179.3 0.8c-9.9 0-18-8.1-18-18zM211.9 66.3c9.9 0 18 8 18.1 17.9l0.7 179.2c0 9.9-8 18-17.9 18.1-9.9 0-18-8-18.1-17.9l-0.7-179.2c-0.1-9.9 8-18.1 17.9-18.1zM201.4 71.7c6.5-6.4 17-6.3 23.3 0.1l236.3 239c6.4 6.5 6.3 17-0.1 23.3-6.5 6.4-17 6.3-23.3-0.1L201.3 95c-6.4-6.4-6.4-16.9 0.1-23.3zM833 84.1c0-9.9-8-18-17.9-18.1l-179.2-0.7c-9.9 0-18 8-18.1 17.9 0 9.9 8 18 17.9 18.1l179.2 0.7c9.9 0.1 18.1-8 18.1-17.9zM815.1 66.3c-9.9 0-18 8-18.1 17.9l-0.7 179.2c0 9.9 8 18 17.9 18.1 9.9 0 18-8 18.1-17.9l0.7-179.2c0-9.9-8-18.1-17.9-18.1zM825.6 71.7c-6.5-6.4-17-6.3-23.3 0.1L566 310.9c-6.4 6.5-6.3 17 0.1 23.3 6.5 6.4 17 6.3 23.3-0.1l236.3-239c6.4-6.5 6.3-17-0.1-23.4zM560.2 430.3c6.5-6.4 17-6.3 23.3 0.1l236.3 239c6.4 6.5 6.3 17-0.1 23.3-6.5 6.4-17 6.3-23.3-0.1L560 453.6c-6.3-6.5-6.3-17 0.2-23.3zM190.8 685.2c0 9.9 8 18 17.9 18.1l179.2 0.7c9.9 0 18-8 18.1-17.9 0-9.9-8-18-17.9-18.1l-179.2-0.7c-9.9 0-18 8-18.1 17.9zM208.7 703.1c9.9 0 18-8 18.1-17.9l0.7-179.2c0-9.9-8-18-17.9-18.1-9.9 0-18 8-18.1 17.9l-0.7 179.2c0 9.9 8 18 17.9 18.1zM464.1 429.1c-6.5-6.4-17-6.3-23.3 0.1l-236.3 239c-6.4 6.5-6.3 17 0.1 23.3 6.5 6.4 17 6.3 23.3-0.1l236.3-239c6.4-6.5 6.3-17-0.1-23.3z"  horiz-adv-x="1024" />

    
    <glyph glyph-name="add" unicode="&#59202;" d="M512 746.666667c200.298667 0 362.666667-162.368 362.666667-362.666667s-162.368-362.666667-362.666667-362.666667S149.333333 183.701333 149.333333 384 311.701333 746.666667 512 746.666667z m0-64c-164.949333 0-298.666667-133.717333-298.666667-298.666667s133.717333-298.666667 298.666667-298.666667 298.666667 133.717333 298.666667 298.666667-133.717333 298.666667-298.666667 298.666667z m32-106.666667v-160H704v-64h-160V192h-64v160.021333L320 352v64l160 0.021333V576h64z"  horiz-adv-x="1024" />

    
    <glyph glyph-name="delete1" unicode="&#59012;" d="M912 692H672c-16.5 73.2-81.9 128-160 128S368.4 765.2 352 692H112c-19.9 0-36-16.1-36-36s16.1-36 36-36h272c19.9 0 36 16.1 36 36 0 50.7 41.3 92 92 92s92-41.3 92-92c0-19.9 16.1-36 36-36h272c19.9 0 36 16.1 36 36s-16.1 36-36 36zM832 548c-19.9 0-36-16.1-36-36v-443.7c0-30.8-14.2-47.5-18.5-48.3h-531c-4.3 0.8-18.6 17.5-18.6 48.3V512c0 19.9-16.1 36-36 36s-36-16.1-36-36v-443.7c0-67.5 39.7-120.3 90.5-120.3h531.1c50.7 0 90.5 52.8 90.5 120.3V512c0 19.9-16.1 36-36 36zM416 160V444c0 17.7-14.3 32-32 32s-32-14.3-32-32v-284c0-17.7 14.3-32 32-32s32 14.3 32 32zM672 160V444c0 17.7-14.3 32-32 32s-32-14.3-32-32v-284c0-17.7 14.3-32 32-32s32 14.3 32 32z"  horiz-adv-x="1024" />

    
    <glyph glyph-name="suohuicaidan-" unicode="&#58885;" d="M0 896h1024v-146.285714H0zM1024 310.857143H73.142857l73.142857 146.285714h877.714286v-146.285714zM0 18.285714h1024v-146.285714H0zM292.571429 384v-292.571429L146.285714 237.714286 0 384l146.285714 146.285714 146.285715 146.285715v-292.571429z"  horiz-adv-x="1024" />

    
    <glyph glyph-name="zujian" unicode="&#58962;" d="M972.09863-120.986301H259.506849c-19.638356 0-35.068493 15.430137-35.068493 35.068493V127.29863c-8.416438-5.610959-18.235616-9.819178-28.054794-12.624657h-1.40274c-12.624658-4.208219-26.652055-5.610959-39.276712-5.610959-77.150685 0-138.871233 63.123288-138.871233 138.871233 0 77.150685 63.123288 138.871233 138.871233 138.871232 14.027397 0 28.054795-2.805479 42.082191-7.013698 1.40274 0 2.805479-1.40274 4.20822-1.40274 7.013699-2.805479 14.027397-5.610959 19.638356-8.416438l2.805479-1.40274V626.673973c0 19.638356 15.430137 35.068493 35.068493 35.068493h228.646576l-4.20822 8.416438c-7.013699 11.221918-12.624658 22.443836-15.430137 35.068493v1.40274c-4.208219 12.624658-5.610959 26.652055-5.610958 39.276712C462.90411 823.057534 526.027397 884.778082 601.775342 884.778082c77.150685 0 138.871233-63.123288 138.871233-138.871233 0-14.027397-2.805479-28.054795-7.013698-42.082191 0-1.40274-1.40274-2.805479-1.40274-4.20822-2.805479-7.013699-5.610959-14.027397-8.416438-19.638356l-7.013699-16.832877h255.29863c19.638356 0 35.068493-15.430137 35.068493-35.068493v-314.213698c0-11.221918-5.610959-22.443836-15.430137-29.457535-9.819178-7.013699-22.443836-7.013699-33.665753-2.805479L897.753425 308.252055c-1.40274 0-1.40274 1.40274-2.80548 1.40274-2.805479 1.40274-7.013699 4.208219-11.221918 5.610958h-1.402739c-7.013699 2.805479-14.027397 2.805479-21.041096 2.80548-37.873973 0-68.734247-30.860274-68.734247-68.734247s30.860274-68.734247 68.734247-68.734246c7.013699 0 14.027397 1.40274 19.638356 2.805479 7.013699 1.40274 12.624658 5.610959 18.235616 8.416439 1.40274 1.40274 2.805479 1.40274 4.20822 2.805479l53.304109 25.249315c11.221918 5.610959 23.846575 4.208219 33.665754-1.40274s16.832877-18.235616 16.832876-29.457534V-85.917808c0-19.638356-15.430137-35.068493-35.068493-35.068493z m-677.523288 70.136986h642.454795v182.356164h-1.40274c-11.221918-7.013699-22.443836-12.624658-35.068493-16.832876h-1.40274c-12.624658-4.208219-26.652055-5.610959-39.276712-5.610959-77.150685 0-138.871233 63.123288-138.871233 138.871233 0 77.150685 63.123288 138.871233 138.871233 138.871232 14.027397 0 28.054795-2.805479 42.082192-7.013698 1.40274 0 2.805479-1.40274 4.208219-1.40274 7.013699-2.805479 14.027397-5.610959 19.638356-8.416438l9.819178-4.208219v224.438356H662.093151c-11.221918 0-22.443836 5.610959-29.457535 15.430137-7.013699 9.819178-7.013699 22.443836-2.805479 33.665753l29.457534 67.331507c0 1.40274 1.40274 1.40274 1.40274 2.805479 1.40274 2.805479 4.208219 7.013699 5.610959 11.221918v1.40274c2.805479 7.013699 2.805479 14.027397 2.805479 21.041096 0 37.873973-30.860274 68.734247-68.734246 68.734246s-68.734247-30.860274-68.734247-68.734246c0-7.013699 1.40274-14.027397 2.80548-19.638356 1.40274-7.013699 5.610959-12.624658 8.416438-18.235617 1.40274-1.40274 1.40274-2.805479 2.805479-4.208219l28.054795-60.317808c5.610959-11.221918 4.208219-23.846575-1.40274-33.665754s-18.235616-16.832877-29.457534-16.832876H294.575342v-274.936987c0-11.221918-5.610959-22.443836-15.430137-29.457534-9.819178-7.013699-22.443836-7.013699-33.665753-2.805479L192.175342 306.849315c-1.40274 0-1.40274 1.40274-2.805479 1.40274-2.805479 1.40274-7.013699 4.208219-11.221918 5.610959h-1.40274c-7.013699 2.805479-14.027397 2.805479-21.041095 2.805479-37.873973 0-68.734247-30.860274-68.734247-68.734246s30.860274-68.734247 68.734247-68.734247c7.013699 0 14.027397 1.40274 19.638356 2.805479 7.013699 1.40274 12.624658 5.610959 18.235616 8.416439 1.40274 1.40274 2.805479 1.40274 4.208219 2.805479l46.290411 22.443836c11.221918 5.610959 23.846575 4.208219 33.665754-1.40274 9.819178-7.013699 16.832877-18.235616 16.832876-29.457534v-235.660274z"  horiz-adv-x="1024" />

    
    <glyph glyph-name="tree-table" unicode="&#58942;" d="M358.4 896h636.344C1014.24 896 1024 884.624 1024 861.864v-187.728c0-22.76-9.752-34.136-29.256-34.136H358.4c-19.504 0-29.256 11.376-29.256 34.136V861.864C329.144 884.624 338.896 896 358.4 896z m182.856-384h453.488c19.504 0 29.256-11.376 29.256-34.136v-187.728c0-22.76-9.752-34.136-29.256-34.136H541.256C521.76 256 512 267.376 512 290.136V477.864C512 500.624 521.752 512 541.256 512z m0-384h453.488c19.504 0 29.256-11.376 29.256-34.136v-187.728c0-22.76-9.752-34.136-29.256-34.136H541.256C521.76-128 512-116.624 512-93.864v187.728C512 116.624 521.752 128 541.256 128zM402.288 349.864c16.16 0 29.256 15.28 29.256 34.136 0 18.848-13.104 34.136-29.256 34.136H138.96V640h51.2c16.16 0 29.264 15.28 29.264 34.136V861.864C219.432 880.72 206.32 896 190.16 896H29.256C13.096 896 0 880.72 0 861.864v-187.728C0 655.28 13.096 640 29.256 640h51.2v-640c0-18.848 13.104-34.136 29.256-34.136h292.576c16.16 0 29.256 15.28 29.256 34.136 0 18.848-13.104 34.136-29.256 34.136H138.96V349.864h263.32z"  horiz-adv-x="1024" />

    


  </font>
</defs>
</svg>
